<?xml version="1.0" encoding="utf-8"?>
<!-- Generator: Adobe Illustrator 22.0.1, SVG Export Plug-In . SVG Version: 6.00 Build 0)  -->
<svg fill="#000000" width="52" height="52" version="1.1" id="lni_lni-air-mail" xmlns="http://www.w3.org/2000/svg" xmlns:xlink="http://www.w3.org/1999/xlink" x="0px"
	 y="0px" viewBox="0 0 64 64" style="enable-background:new 0 0 64 64;" xml:space="preserve">
<g>
	<path d="M26.5,62c-0.2,0-0.5,0-0.7,0c-1.9-0.2-3.5-1.3-4.5-2.9l-6.2-10.2L4.9,42.7c-1.6-1-2.7-2.6-2.9-4.5c-0.2-1.9,0.4-3.7,1.7-5
		c2-2,5.2-2.4,7.6-0.8l5.7,3.7l12-12.1c0.1-0.1,0.1-0.3,0.1-0.4c0-0.1,0-0.2-0.2-0.4L14.9,13c-1.4-1-2.3-2.7-2.5-4.4
		C12.3,6.8,13,5,14.2,3.8c1.9-1.9,4.7-2.3,7.1-1.1l18.4,9.4c0.2,0.1,0.4,0.1,0.6-0.1l7.4-7.4c1.6-1.6,3.7-2.5,6-2.5c0,0,0,0,0,0
		c2.2,0,4.4,0.9,6,2.5c1.6,1.6,2.5,3.7,2.5,6c0,2.3-0.9,4.4-2.5,6l0,0l-7.4,7.3c-0.2,0.1-0.2,0.4-0.1,0.6l9.4,18.3
		c1.2,2.4,0.8,5.2-1.1,7.1c-1.3,1.3-3,1.9-4.8,1.8c-1.8-0.1-3.4-1-4.4-2.5L40.8,35c-0.1-0.2-0.3-0.2-0.4-0.2c-0.1,0-0.2,0-0.4,0.1
		l-12.2,12l3.7,5.7c1.6,2.4,1.3,5.6-0.8,7.6C29.7,61.4,28.1,62,26.5,62z M8.1,33.4c-1.1,0-2.1,0.4-2.9,1.2C4.3,35.5,3.9,36.7,4,38
		c0.2,1.3,0.9,2.3,1.9,3l10.4,6.3c0.1,0.1,0.3,0.2,0.3,0.3L23,58c0.7,1.1,1.7,1.8,3,1.9c1.3,0.1,2.5-0.3,3.4-1.2
		c1.4-1.4,1.6-3.5,0.5-5.1l-4.2-6.4c-0.3-0.4-0.2-0.9,0.1-1.3l12.8-12.5c0.5-0.5,1.2-0.8,1.9-0.7c0.7,0.1,1.4,0.4,1.8,1l10.3,14
		c0.7,1,1.8,1.6,3,1.7c1.2,0.1,2.4-0.3,3.2-1.2c1.3-1.3,1.6-3.2,0.7-4.7l-9.4-18.3c-0.5-1-0.3-2.1,0.5-2.9l7.4-7.3
		c1.2-1.2,1.9-2.8,1.9-4.5c0-1.7-0.7-3.3-1.9-4.6c-1.2-1.2-2.8-1.9-4.5-1.9c0,0,0,0,0,0c-1.7,0-3.3,0.7-4.5,1.9l-7.4,7.4
		c-0.8,0.8-1.9,1-2.9,0.5L20.4,4.4c-1.6-0.8-3.5-0.5-4.7,0.7c-0.8,0.8-1.3,2-1.2,3.2c0.1,1.2,0.7,2.3,1.7,3l14.1,10.3
		c0.6,0.4,1,1.1,1,1.8c0.1,0.7-0.2,1.4-0.7,1.9L17.9,38.1c-0.3,0.3-0.9,0.4-1.3,0.1l-6.3-4.1C9.6,33.6,8.9,33.4,8.1,33.4z
		 M58.8,15.8L58.8,15.8L58.8,15.8z"/>
</g>
</svg>
