<?xml version="1.0" encoding="utf-8"?>
<!-- Generator: Adobe Illustrator 22.0.0, SVG Export Plug-In . SVG Version: 6.00 Build 0)  -->
<svg fill="#000000" width="52" height="52" version="1.1" id="lni_lni-angle-double-left" xmlns="http://www.w3.org/2000/svg" xmlns:xlink="http://www.w3.org/1999/xlink"
	 x="0px" y="0px" viewBox="0 0 64 64" style="enable-background:new 0 0 64 64;" xml:space="preserve">
<g>
	<path d="M54.7,60.3L29.8,34c-0.9-1-0.9-2.7,0-3.6L54.7,3.8c0.4-0.4,0.4-1,0-1.4c-0.4-0.4-1-0.4-1.4,0L28.3,29
		c-1.7,1.8-1.6,4.6,0,6.4l24.9,26.3c0.2,0.2,0.5,0.3,0.7,0.3c0.2,0,0.5-0.1,0.7-0.3C55,61.3,55.1,60.7,54.7,60.3z"/>
	<path d="M11.7,33.9c-0.9-1-0.9-2.7,0-3.6L36.7,3.7c0.4-0.4,0.4-1,0-1.4c-0.4-0.4-1-0.4-1.4,0L10.3,28.9c-1.7,1.8-1.6,4.6,0,6.4
		l24.9,26.3c0.2,0.2,0.5,0.3,0.7,0.3c0.2,0,0.5-0.1,0.7-0.3c0.4-0.4,0.4-1,0-1.4L11.7,33.9z"/>
</g>
</svg>
