<?xml version="1.0" encoding="utf-8"?>
<!-- Generator: Adobe Illustrator 22.0.0, SVG Export Plug-In . SVG Version: 6.00 Build 0)  -->
<svg fill="#000000" width="52" height="52" version="1.1" id="lni_lni-arrow-left" xmlns="http://www.w3.org/2000/svg" xmlns:xlink="http://www.w3.org/1999/xlink" x="0px"
	 y="0px" viewBox="0 0 64 64" style="enable-background:new 0 0 64 64;" xml:space="preserve">
<path d="M61,31H4.2c0.1-0.3,0.3-0.5,0.4-0.7l6.9-8.2c0.4-0.4,0.3-1.1-0.1-1.4c-0.4-0.4-1.1-0.3-1.4,0.1L3.1,29
	c-1.5,1.8-1.5,4.3,0,6.1l6.9,8.2c0.2,0.2,0.5,0.4,0.8,0.4c0.2,0,0.5-0.1,0.6-0.2c0.4-0.4,0.5-1,0.1-1.4l-6.9-8.2
	c-0.2-0.2-0.3-0.5-0.4-0.7H61c0.6,0,1-0.4,1-1C62,31.4,61.6,31,61,31z"/>
</svg>
