<?xml version="1.0" encoding="utf-8"?>
<!-- Generator: Adobe Illustrator 22.0.0, SVG Export Plug-In . SVG Version: 6.00 Build 0)  -->
<svg fill="#000000" width="52" height="52" version="1.1" id="lni_lni-arrow-down" xmlns="http://www.w3.org/2000/svg" xmlns:xlink="http://www.w3.org/1999/xlink" x="0px"
	 y="0px" viewBox="0 0 64 64" style="enable-background:new 0 0 64 64;" xml:space="preserve">
<path d="M43.3,52.6c-0.4-0.4-1-0.5-1.4-0.1l-8.2,6.9c-0.2,0.2-0.5,0.3-0.7,0.4V3c0-0.6-0.4-1-1-1c-0.6,0-1,0.4-1,1v56.8
	c-0.3-0.1-0.5-0.2-0.7-0.4l-8.2-6.9c-0.4-0.4-1.1-0.3-1.4,0.1c-0.4,0.4-0.3,1.1,0.1,1.4l8.2,6.9c0.9,0.7,2,1.1,3,1.1
	c1.1,0,2.2-0.4,3-1.1l8.2-6.9C43.6,53.7,43.7,53,43.3,52.6z"/>
</svg>
