<?xml version="1.0" encoding="utf-8"?>
<!-- Generator: Adobe Illustrator 22.0.0, SVG Export Plug-In . SVG Version: 6.00 Build 0)  -->
<svg fill="#000000" width="52" height="52" version="1.1" id="lni_lni-arrow-right" xmlns="http://www.w3.org/2000/svg" xmlns:xlink="http://www.w3.org/1999/xlink"
	 x="0px" y="0px" viewBox="0 0 64 64" style="enable-background:new 0 0 64 64;" xml:space="preserve">
<path d="M60.9,29L54,20.8c-0.4-0.4-1-0.5-1.4-0.1c-0.4,0.4-0.5,1-0.1,1.4l6.9,8.2c0.2,0.2,0.3,0.5,0.4,0.7H3c-0.6,0-1,0.4-1,1
	c0,0.6,0.4,1,1,1h56.8c-0.1,0.3-0.2,0.5-0.4,0.7l-6.9,8.2c-0.4,0.4-0.3,1.1,0.1,1.4c0.2,0.2,0.4,0.2,0.6,0.2c0.3,0,0.6-0.1,0.8-0.4
	l6.9-8.2C62.4,33.3,62.4,30.7,60.9,29z"/>
</svg>
