<?xml version="1.0" encoding="utf-8"?>
<!-- Generator: Adobe Illustrator 22.0.0, SVG Export Plug-In . SVG Version: 6.00 Build 0)  -->
<svg fill="#000000" width="52" height="52" version="1.1" id="lni_lni-arrow-up" xmlns="http://www.w3.org/2000/svg" xmlns:xlink="http://www.w3.org/1999/xlink" x="0px"
	 y="0px" viewBox="0 0 64 64" style="enable-background:new 0 0 64 64;" xml:space="preserve">
<path d="M43.2,10L35,3.1c-1.8-1.5-4.3-1.5-6.1,0L20.8,10c-0.4,0.4-0.5,1-0.1,1.4c0.4,0.4,1,0.5,1.4,0.1l8.2-6.9
	c0.2-0.2,0.5-0.3,0.7-0.4V61c0,0.6,0.4,1,1,1c0.6,0,1-0.4,1-1V4.2c0.3,0.1,0.5,0.2,0.7,0.4l8.2,6.9c0.2,0.2,0.4,0.2,0.6,0.2
	c0.3,0,0.6-0.1,0.8-0.4C43.7,11,43.6,10.3,43.2,10z"/>
</svg>
