<?xml version="1.0" encoding="utf-8"?>
<!-- Generator: Adobe Illustrator 22.0.1, SVG Export Plug-In . SVG Version: 6.00 Build 0)  -->
<svg fill="#000000" width="52" height="52" version="1.1" id="lni_lni-asterisk" xmlns="http://www.w3.org/2000/svg" xmlns:xlink="http://www.w3.org/1999/xlink" x="0px"
	 y="0px" viewBox="0 0 64 64" style="enable-background:new 0 0 64 64;" xml:space="preserve">
<path d="M61,31H34.4l18.8-18.8c0.4-0.4,0.4-1,0-1.4s-1-0.4-1.4,0L33,29.6V3c0-0.6-0.4-1-1-1s-1,0.4-1,1v26.6L12.2,10.8
	c-0.4-0.4-1-0.4-1.4,0s-0.4,1,0,1.4L29.6,31H3c-0.6,0-1,0.4-1,1s0.4,1,1,1h26.6L10.8,51.8c-0.4,0.4-0.4,1,0,1.4
	c0.2,0.2,0.5,0.3,0.7,0.3s0.5-0.1,0.7-0.3L31,34.4V61c0,0.6,0.4,1,1,1s1-0.4,1-1V34.4l18.8,18.8c0.2,0.2,0.5,0.3,0.7,0.3
	s0.5-0.1,0.7-0.3c0.4-0.4,0.4-1,0-1.4L34.4,33H61c0.6,0,1-0.4,1-1S61.6,31,61,31z"/>
</svg>
