<?xml version="1.0" encoding="utf-8"?>
<!-- Generator: Adobe Illustrator 22.0.1, SVG Export Plug-In . SVG Version: 6.00 Build 0)  -->
<svg fill="#000000" width="52" height="52" version="1.1" id="lni_lni-bell-alt-1" xmlns="http://www.w3.org/2000/svg" xmlns:xlink="http://www.w3.org/1999/xlink" x="0px"
	 y="0px" viewBox="0 0 64 64" style="enable-background:new 0 0 64 64;" xml:space="preserve">
<path d="M52.1,46.4c-1.7-4.1-1.9-8.8-1.9-8.8V27.2c0-9.7-7.6-17.6-17.2-18.1V3c0-0.6-0.4-1-1-1c-0.6,0-1,0.4-1,1v6.1
	c-9.6,0.5-17.2,8.4-17.2,18.1l0,10.4c0,0-0.3,4.8-2,8.9c-0.7,1.7-0.5,3.7,0.5,5.2c1,1.5,2.8,2.5,4.6,2.5h6.8C24,58.5,27.6,62,32,62
	c4.4,0,8-3.5,8.2-7.9H47c1.9,0,3.6-0.9,4.6-2.5C52.6,50.1,52.8,48.2,52.1,46.4z M32,60c-3.3,0-6-2.6-6.2-5.9h12.3
	C38,57.4,35.3,60,32,60z M49.9,50.5c-0.7,1-1.8,1.6-3,1.6h-22c0,0,0,0,0,0c0,0,0,0,0,0H17c-1.2,0-2.3-0.6-3-1.6
	c-0.7-1-0.8-2.2-0.3-3.4c1.8-4.4,2.1-9.3,2.1-9.6V27.2C15.8,18.3,23.1,11,32,11c8.9,0,16.2,7.3,16.2,16.2l0,10.5
	c0,0.2,0.3,5.1,2.1,9.5C50.7,48.3,50.6,49.5,49.9,50.5z"/>
</svg>
