<?xml version="1.0" encoding="utf-8"?>
<!-- Generator: Adobe Illustrator 22.0.0, SVG Export Plug-In . SVG Version: 6.00 Build 0)  -->
<svg fill="#000000" width="52" height="52" version="1.1" id="lni_lni-calendar" xmlns="http://www.w3.org/2000/svg" xmlns:xlink="http://www.w3.org/1999/xlink" x="0px"
	 y="0px" viewBox="0 0 64 64" style="enable-background:new 0 0 64 64;" xml:space="preserve">
<g>
	<path d="M17.8,37.8h-3.3c-0.6,0-1,0.4-1,1V42c0,0.6,0.4,1,1,1h3.3c0.6,0,1-0.4,1-1v-3.2C18.8,38.2,18.4,37.8,17.8,37.8z"/>
	<path d="M28.4,37.8h-3.3c-0.6,0-1,0.4-1,1V42c0,0.6,0.4,1,1,1h3.3c0.6,0,1-0.4,1-1v-3.2C29.4,38.2,28.9,37.8,28.4,37.8z"/>
	<path d="M38.9,37.8h-3.3c-0.6,0-1,0.4-1,1V42c0,0.6,0.4,1,1,1h3.3c0.6,0,1-0.4,1-1v-3.2C39.9,38.2,39.5,37.8,38.9,37.8z"/>
	<path d="M49.5,37.8h-3.3c-0.6,0-1,0.4-1,1V42c0,0.6,0.4,1,1,1h3.3c0.6,0,1-0.4,1-1v-3.2C50.5,38.2,50,37.8,49.5,37.8z"/>
	<path d="M17.8,48.2h-3.3c-0.6,0-1,0.4-1,1v3.2c0,0.6,0.4,1,1,1h3.3c0.6,0,1-0.4,1-1v-3.2C18.8,48.6,18.4,48.2,17.8,48.2z"/>
	<path d="M28.4,48.2h-3.3c-0.6,0-1,0.4-1,1v3.2c0,0.6,0.4,1,1,1h3.3c0.6,0,1-0.4,1-1v-3.2C29.4,48.6,28.9,48.2,28.4,48.2z"/>
	<path d="M38.9,48.2h-3.3c-0.6,0-1,0.4-1,1v3.2c0,0.6,0.4,1,1,1h3.3c0.6,0,1-0.4,1-1v-3.2C39.9,48.6,39.5,48.2,38.9,48.2z"/>
	<path d="M49.5,48.2h-3.3c-0.6,0-1,0.4-1,1v3.2c0,0.6,0.4,1,1,1h3.3c0.6,0,1-0.4,1-1v-3.2C50.5,48.6,50,48.2,49.5,48.2z"/>
	<path d="M57,16.1H33v-4.2c2.3-0.5,4.1-2.5,4.1-4.9c0-2.7-2.3-5-5.1-5c-2.8,0-5.1,2.2-5.1,5c0,2.4,1.7,4.4,4.1,4.9v4.2H7
		c-2.8,0-5,2.2-5,5V57c0,2.8,2.2,5,5,5h50c2.8,0,5-2.2,5-5V21.1C62,18.3,59.8,16.1,57,16.1z M28.9,7c0-1.6,1.4-3,3.1-3
		s3.1,1.3,3.1,3s-1.4,3-3.1,3S28.9,8.6,28.9,7z M7,18.1h50c1.7,0,3,1.3,3,3V29H4v-7.9C4,19.4,5.3,18.1,7,18.1z M57,60H7
		c-1.7,0-3-1.3-3-3V31h56v26C60,58.7,58.7,60,57,60z"/>
</g>
</svg>
