<?xml version="1.0" encoding="utf-8"?>
<!-- Generator: Adobe Illustrator 22.0.1, SVG Export Plug-In . SVG Version: 6.00 Build 0)  -->
<svg fill="#000000" width="52" height="52" version="1.1" id="lni_lni-chat-alt-7" xmlns="http://www.w3.org/2000/svg" xmlns:xlink="http://www.w3.org/1999/xlink" x="0px"
	 y="0px" viewBox="0 0 64 64" style="enable-background:new 0 0 64 64;" xml:space="preserve">
<g>
	<path d="M44.1,10H19.9C10,10,2,18.1,2,28v21C2,51.7,4.2,54,6.9,54h37.1C54,54,62,45.9,62,36v-8C62,18.1,54,10,44.1,10z M60,36
		C60,44.8,52.8,52,44.1,52H6.9C5.3,52,4,50.6,4,49V28C4,19.2,11.2,12,19.9,12h24.1C52.8,12,60,19.2,60,28V36z"/>
	<path d="M16.7,29.4c-1.4,0-2.6,1.2-2.6,2.6c0,1.4,1.2,2.6,2.6,2.6c1.4,0,2.6-1.2,2.6-2.6C19.3,30.6,18.1,29.4,16.7,29.4z"/>
	<circle cx="32" cy="32" r="2.6"/>
	<path d="M47.3,29.4c-1.4,0-2.6,1.2-2.6,2.6c0,1.4,1.2,2.6,2.6,2.6c1.4,0,2.6-1.2,2.6-2.6C49.9,30.6,48.8,29.4,47.3,29.4z"/>
</g>
</svg>
