<?xml version="1.0" encoding="utf-8"?>
<!-- Generator: Adobe Illustrator 22.0.0, SVG Export Plug-In . SVG Version: 6.00 Build 0)  -->
<svg fill="#000000" width="52" height="52" version="1.1" id="lni_lni-circle-plus" xmlns="http://www.w3.org/2000/svg" xmlns:xlink="http://www.w3.org/1999/xlink"
	 x="0px" y="0px" viewBox="0 0 64 64" style="enable-background:new 0 0 64 64;" xml:space="preserve">
<g>
	<path d="M42.6,30.9C42.6,30.9,42.6,30.9,42.6,30.9L33,31l0-9.6c0-0.6-0.4-1-1-1c0,0,0,0,0,0c-0.6,0-1,0.4-1,1l0,9.6l-9.6,0
		c-0.6,0-1,0.4-1,1c0,0.6,0.4,1,1,1c0,0,0,0,0,0l9.6,0l0,9.6c0,0.6,0.4,1,1,1c0,0,0,0,0,0c0.6,0,1-0.5,1-1l0-9.6l9.6,0
		c0.6,0,1-0.4,1-1C43.6,31.4,43.1,30.9,42.6,30.9z"/>
	<path d="M32,2C15.5,2,2,15.5,2,32c0,16.5,13.5,30,30,30c16.5,0,30-13.5,30-30C62,15.5,48.5,2,32,2z M32,60C16.6,60,4,47.4,4,32
		C4,16.6,16.6,4,32,4c15.4,0,28,12.6,28,28C60,47.4,47.4,60,32,60z"/>
</g>
</svg>
