<?xml version="1.0" encoding="utf-8"?>
<!-- Generator: Adobe Illustrator 22.0.0, SVG Export Plug-In . SVG Version: 6.00 Build 0)  -->
<svg fill="#000000" width="52" height="52" version="1.1" id="lni_lni-close" xmlns="http://www.w3.org/2000/svg" xmlns:xlink="http://www.w3.org/1999/xlink" x="0px"
	 y="0px" viewBox="0 0 64 64" style="enable-background:new 0 0 64 64;" xml:space="preserve">
<path d="M33.4,32L61.7,3.7c0.4-0.4,0.4-1,0-1.4c-0.4-0.4-1-0.4-1.4,0L32,30.6L3.7,2.3c-0.4-0.4-1-0.4-1.4,0c-0.4,0.4-0.4,1,0,1.4
	L30.6,32L2.3,60.3c-0.4,0.4-0.4,1,0,1.4C2.5,61.9,2.7,62,3,62s0.5-0.1,0.7-0.3L32,33.4l28.3,28.3c0.2,0.2,0.5,0.3,0.7,0.3
	s0.5-0.1,0.7-0.3c0.4-0.4,0.4-1,0-1.4L33.4,32z"/>
</svg>
