<?xml version="1.0" encoding="utf-8"?>
<!-- Generator: Adobe Illustrator 22.0.0, SVG Export Plug-In . SVG Version: 6.00 Build 0)  -->
<svg fill="#000000" width="52" height="52" version="1.1" id="lni_lni-code" xmlns="http://www.w3.org/2000/svg" xmlns:xlink="http://www.w3.org/1999/xlink" x="0px"
	 y="0px" viewBox="0 0 64 64" style="enable-background:new 0 0 64 64;" xml:space="preserve">
<g>
	<path d="M18.1,15.5c0.4-0.4,0.3-1-0.1-1.4c-0.4-0.4-1-0.3-1.4,0.1L3,29.4c-1.3,1.4-1.3,3.7,0,5.1l13.6,15.3
		c0.2,0.2,0.5,0.3,0.7,0.3c0.2,0,0.5-0.1,0.7-0.3c0.4-0.4,0.4-1,0.1-1.4L4.4,33.2c-0.6-0.7-0.6-1.8,0-2.5L18.1,15.5z"/>
	<path d="M61,29.4L47.4,14.1c-0.4-0.4-1-0.4-1.4-0.1c-0.4,0.4-0.4,1-0.1,1.4l13.6,15.3c0.6,0.7,0.6,1.8,0,2.5L45.9,48.5
		c-0.4,0.4-0.3,1,0.1,1.4c0.2,0.2,0.4,0.3,0.7,0.3c0.3,0,0.5-0.1,0.7-0.3L61,34.6C62.3,33.2,62.3,30.8,61,29.4z"/>
	<path d="M37.8,14.7c-0.5-0.2-1.1,0.1-1.3,0.6L25.6,48c-0.2,0.5,0.1,1.1,0.6,1.3c0.1,0,0.2,0.1,0.3,0.1c0.4,0,0.8-0.3,0.9-0.7
		l11-32.7C38.6,15.5,38.3,14.9,37.8,14.7z"/>
</g>
</svg>
