<?xml version="1.0" encoding="utf-8"?>
<!-- Generator: Adobe Illustrator 22.0.0, SVG Export Plug-In . SVG Version: 6.00 Build 0)  -->
<svg fill="#000000" width="52" height="52" version="1.1" id="lni_lni-cog" xmlns="http://www.w3.org/2000/svg" xmlns:xlink="http://www.w3.org/1999/xlink" x="0px"
	 y="0px" viewBox="0 0 64 64" style="enable-background:new 0 0 64 64;" xml:space="preserve">
<g>
	<path d="M32.1,20.5c-6.3,0-11.5,5.2-11.5,11.5s5.2,11.5,11.5,11.5S43.6,38.4,43.6,32S38.4,20.5,32.1,20.5z M32.1,41.6
		c-5.2,0-9.5-4.3-9.5-9.5c0-5.3,4.3-9.5,9.5-9.5c5.2,0,9.5,4.3,9.5,9.5C41.6,37.3,37.3,41.6,32.1,41.6z"/>
	<path d="M61.1,39.5l-6.2-3.4c-0.3-0.2-0.4-0.5-0.4-0.8c0.2-1.2,0.3-2.4,0.3-3.6c0-1.3-0.1-2.5-0.3-3.6c0-0.3,0-0.7,0.3-0.8l6.3-3.5
		c0.7-0.4,1-1.3,0.7-2.2l-5.9-10c-0.4-0.7-1.3-1-2.2-0.7l-6.5,3.6c-0.2,0.1-0.5,0.1-0.7,0c-0.5-0.4-0.9-0.7-1.3-1.1
		c-1.1-1-2.1-1.8-3.5-2.5c-0.6-0.3-0.9-0.8-0.9-1.5V5.6c0-2-1.6-3.6-3.6-3.6H26.8c-2,0-3.6,1.6-3.6,3.6l0,4c0,0.6-0.4,1.2-0.9,1.5
		c-1.4,0.7-2.4,1.6-3.6,2.6c-0.4,0.3-0.7,0.6-1.2,1c-0.2,0.1-0.4,0.2-0.7,0.1l-5.9-3.3c-1.8-1-2.6,0.1-2.7,0.4l-5.7,9.8
		c-0.2,0.4-0.3,0.9-0.2,1.3c0.1,0.4,0.4,0.8,0.8,1l6.2,3.4c0.3,0.2,0.4,0.5,0.4,0.8c-0.2,1.1-0.3,2.3-0.3,3.6c0,1.2,0.1,2.4,0.2,3.6
		v0c0,0.3-0.1,0.6-0.4,0.8l-6.3,3.5c-0.7,0.4-1,1.3-0.7,2.2l5.9,10c0.4,0.7,1.3,1,2.2,0.7l6.5-3.6c0.2-0.1,0.5-0.1,0.7,0
		c0.4,0.4,0.8,0.7,1.2,1c1.2,1,2.2,1.8,3.6,2.5c0.6,0.3,0.9,0.8,0.9,1.5v4.4c0,2,1.6,3.6,3.6,3.6h10.5c2,0,3.6-1.6,3.6-3.6v-4.6
		c0-0.6,0.4-1.2,0.9-1.5c1.4-0.7,2.4-1.5,3.5-2.5c0.4-0.3,0.8-0.7,1.2-1c0.2-0.1,0.4-0.2,0.7-0.1l5.9,3.3c1.8,1,2.6-0.1,2.7-0.4
		l5.8-9.8c0.2-0.4,0.3-0.8,0.2-1.3C61.8,40.1,61.5,39.7,61.1,39.5z M54.3,50.4c-0.1,0-0.1-0.1-0.2-0.1L48.2,47
		c-0.9-0.5-2.1-0.4-2.9,0.2c-0.5,0.4-0.9,0.7-1.3,1.1c-1.1,0.9-1.9,1.6-3.1,2.2c-1.2,0.6-2.1,1.9-2.1,3.3v4.6c0,0.9-0.7,1.6-1.6,1.6
		H26.8c-0.9,0-1.6-0.7-1.6-1.6v-4.4c0-1.4-0.8-2.7-2.1-3.3c-1.2-0.6-2.1-1.3-3.2-2.2c-0.4-0.3-0.8-0.7-1.3-1.1
		c-0.5-0.4-1-0.6-1.6-0.6c-0.4,0-0.9,0.1-1.3,0.3l-6.1,3.4l-5.5-9.3l6-3.4c1-0.5,1.5-1.6,1.4-2.8c-0.1-1.1-0.2-2.2-0.2-3.3
		c0-1.2,0.1-2.3,0.2-3.3c0.2-1.2-0.3-2.4-1.4-2.9l-5.9-3.3l5.4-9.3c0.1,0,0.1,0.1,0.2,0.1l5.9,3.3c0.9,0.5,2.1,0.4,2.9-0.3
		c0.4-0.4,0.8-0.7,1.2-1c1.1-0.9,2-1.7,3.2-2.3c1.3-0.6,2.1-1.9,2.1-3.3l0-4c0-0.9,0.7-1.6,1.6-1.6h10.5c0.9,0,1.6,0.7,1.6,1.6v3.9
		c0,1.4,0.8,2.7,2.1,3.3c1.2,0.6,2,1.3,3.1,2.2c0.4,0.4,0.9,0.7,1.3,1.1c0.8,0.7,2,0.7,2.9,0.2l6.1-3.4l5.5,9.3l-6,3.3
		c-1,0.6-1.6,1.7-1.3,2.9c0.2,1,0.2,2.1,0.2,3.3c0,1.1-0.1,2.2-0.3,3.3c-0.2,1.2,0.4,2.3,1.4,2.9l5.9,3.2L54.3,50.4z"/>
</g>
</svg>
