<?xml version="1.0" encoding="utf-8"?>
<!-- Generator: Adobe Illustrator 22.0.0, SVG Export Plug-In . SVG Version: 6.00 Build 0)  -->
<svg fill="#000000" width="52" height="52" version="1.1" id="lni_lni-control-panel" xmlns="http://www.w3.org/2000/svg" xmlns:xlink="http://www.w3.org/1999/xlink"
	 x="0px" y="0px" viewBox="0 0 64 64" style="enable-background:new 0 0 64 64;" xml:space="preserve">
<g>
	<path d="M49.1,2H14.9c-2.8,0-5,2.2-5,5v50c0,2.8,2.2,5,5,5h34.2c2.8,0,5-2.2,5-5V7C54.1,4.2,51.9,2,49.1,2z M52.1,57
		c0,1.7-1.3,3-3,3H14.9c-1.7,0-3-1.3-3-3V7c0-1.7,1.3-3,3-3h34.2c1.7,0,3,1.3,3,3V57z"/>
	<path d="M42.6,15.2H25.1v-1.6c0-0.6-0.4-1-1-1s-1,0.4-1,1v1.6h-1.6c-0.6,0-1,0.4-1,1s0.4,1,1,1h1.6v1.6c0,0.6,0.4,1,1,1s1-0.4,1-1
		v-1.6h17.5c0.6,0,1-0.4,1-1S43.1,15.2,42.6,15.2z"/>
	<path d="M42.6,31h-1.6v-1.6c0-0.6-0.4-1-1-1s-1,0.4-1,1V31H21.4c-0.6,0-1,0.4-1,1s0.4,1,1,1h17.5v1.6c0,0.6,0.4,1,1,1s1-0.4,1-1V33
		h1.6c0.6,0,1-0.4,1-1S43.1,31,42.6,31z"/>
	<path d="M42.6,46.8H25.1v-1.6c0-0.6-0.4-1-1-1s-1,0.4-1,1v1.6h-1.6c-0.6,0-1,0.4-1,1s0.4,1,1,1h1.6v1.6c0,0.6,0.4,1,1,1s1-0.4,1-1
		v-1.6h17.5c0.6,0,1-0.4,1-1S43.1,46.8,42.6,46.8z"/>
</g>
</svg>
