<?xml version="1.0" encoding="utf-8"?>
<!-- Generator: Adobe Illustrator 22.0.1, SVG Export Plug-In . SVG Version: 6.00 Build 0)  -->
<svg fill="#000000" width="52" height="52" version="1.1" id="lni_lni-copy" xmlns="http://www.w3.org/2000/svg" xmlns:xlink="http://www.w3.org/1999/xlink" x="0px"
	 y="0px" viewBox="0 0 64 64" style="enable-background:new 0 0 64 64;" xml:space="preserve">
<g>
	<path d="M57,24H34.2V8.6c0-3.6-2.9-6.6-6.6-6.6H8.6C4.9,2,2,4.9,2,8.6v22.6c0,3.6,2.9,6.6,6.6,6.6h19.2V57c0,2.8,2.2,5,5,5H57
		c2.8,0,5-2.2,5-5V29C62,26.2,59.8,24,57,24z M8.6,35.8c-2.5,0-4.6-2-4.6-4.6V8.6C4,6,6,4,8.6,4h19.1c2.5,0,4.6,2,4.6,4.6v15.5
		c-2.5,0.3-4.4,2.4-4.4,4.9v6.8H8.6z M60,57c0,1.7-1.3,3-3,3H32.8c-1.7,0-3-1.3-3-3V29c0-1.7,1.3-3,3-3H57c1.7,0,3,1.3,3,3V57z"/>
	<path d="M51.6,32.7H38.2c-0.6,0-1,0.4-1,1s0.4,1,1,1h13.4c0.6,0,1-0.4,1-1S52.2,32.7,51.6,32.7z"/>
	<path d="M51.6,42.1H38.2c-0.6,0-1,0.4-1,1s0.4,1,1,1h13.4c0.6,0,1-0.4,1-1S52.2,42.1,51.6,42.1z"/>
	<path d="M51.6,51.5H38.2c-0.6,0-1,0.4-1,1s0.4,1,1,1h13.4c0.6,0,1-0.4,1-1S52.2,51.5,51.6,51.5z"/>
</g>
</svg>
