<?xml version="1.0" encoding="utf-8"?>
<!-- Generator: Adobe Illustrator 22.0.1, SVG Export Plug-In . SVG Version: 6.00 Build 0)  -->
<svg fill="#000000" width="52" height="52" version="1.1" id="lni_lni-crown" xmlns="http://www.w3.org/2000/svg" xmlns:xlink="http://www.w3.org/1999/xlink" x="0px"
	 y="0px" viewBox="0 0 64 64" style="enable-background:new 0 0 64 64;" xml:space="preserve">
<g>
	<path d="M59.4,9.6c-1.6-1-3.6-1-5.2,0l-7,4.2c-1.1,0.6-2.4,0.6-3.4-0.2l-8.7-6.9c-1.8-1.5-4.5-1.4-6.3,0v0l-8.7,7.1
		c-1,0.8-2.4,0.9-3.4,0.3L9.8,10C8.1,9,6.1,9,4.5,10c-1.6,1-2.5,2.8-2.3,4.7l3.3,37.6c0.3,3.5,3.2,6.1,6.6,6.1h39.7
		c3.5,0,6.3-2.6,6.6-6.1l3.4-38.1C62,12.4,61.1,10.6,59.4,9.6z M51.8,56.4H12.1c-2.4,0-4.4-1.8-4.6-4.3l-1-11.9h51l-1.1,11.9
		C56.2,54.6,54.2,56.4,51.8,56.4z M59.8,14.1l-2.1,24.1H6.3L4.2,14.5c-0.1-1.1,0.4-2.2,1.4-2.8c0.5-0.3,1-0.5,1.6-0.5
		c0.5,0,1.1,0.1,1.5,0.4l6.9,4.1c1.8,1.1,4.1,0.9,5.7-0.4l8.7-7.1v0c1.1-0.9,2.7-0.9,3.8,0l8.7,6.9c1.6,1.3,3.9,1.4,5.7,0.4l7-4.2
		c1-0.6,2.2-0.6,3.1,0C59.4,11.9,59.9,13,59.8,14.1z"/>
	<path d="M20.7,44.9c-1.6,0-2.8,1.3-2.8,2.8s1.3,2.8,2.8,2.8c1.6,0,2.8-1.3,2.8-2.8S22.3,44.9,20.7,44.9z"/>
	<circle cx="32" cy="47.7" r="2.8"/>
	<circle cx="43.3" cy="47.7" r="2.8"/>
</g>
</svg>
