<?xml version="1.0" encoding="utf-8"?>
<!-- Generator: Adobe Illustrator 22.0.0, SVG Export Plug-In . SVG Version: 6.00 Build 0)  -->
<svg fill="#000000" width="52" height="52" version="1.1" id="lni_lni-database" xmlns="http://www.w3.org/2000/svg" xmlns:xlink="http://www.w3.org/1999/xlink" x="0px"
	 y="0px" viewBox="0 0 64 64" style="enable-background:new 0 0 64 64;" xml:space="preserve">
<path d="M52.3,38.6L52.3,38.6l0-12.3c0-0.1,0-0.2,0-0.3h0V13.5C52.3,7.1,43.4,2,32,2C20.6,2,11.7,7.1,11.7,13.5v12.4h0
	c0,0.1,0,0.3,0,0.4v12.3h0c0,0.1,0,0.2,0,0.3v11.6C11.7,56.8,20.8,62,32,62c11.2,0,20.3-5.2,20.3-11.5V38.9
	C52.3,38.8,52.3,38.7,52.3,38.6z M32,4c9.9,0,18.3,4.4,18.3,9.5s-8.4,9.5-18.3,9.5s-18.3-4.4-18.3-9.5S22.1,4,32,4z M32,25.1
	c8.2,0,15-2.6,18.3-6.5v7.6c-0.1,2.2-1.8,3.9-3.2,4.9c-3.4,2.6-9,4.1-15.1,4.1c-6,0-11.6-1.5-15.1-4.1c-1.4-1-3-2.7-3.2-4.8v-7.6
	C17,22.5,23.8,25.1,32,25.1z M15.7,32.7c3.8,2.8,9.9,4.5,16.3,4.5c6.5,0,12.5-1.7,16.3-4.5c0.8-0.6,1.5-1.2,2-1.8v8
	c-0.3,4.9-8.5,9-18.3,9c-9.8,0-18-4.1-18.3-9v-7.9C14.3,31.5,14.9,32.1,15.7,32.7z M50.3,50.5c0,5.2-8.4,9.5-18.3,9.5
	c-9.7,0-18.3-4.5-18.3-9.5v-6.9c3.2,3.8,10.1,6.3,18.3,6.3c8.2,0,15-2.5,18.3-6.3V50.5z"/>
</svg>
