<?xml version="1.0" encoding="utf-8"?>
<!-- Generator: Adobe Illustrator 22.0.0, SVG Export Plug-In . SVG Version: 6.00 Build 0)  -->
<svg fill="#1C2033" width="52" height="52" version="1.1" id="Layer_1" xmlns="http://www.w3.org/2000/svg" xmlns:xlink="http://www.w3.org/1999/xlink" x="0px" y="0px"
	 viewBox="0 0 64 64" style="enable-background:new 0 0 64 64;" xml:space="preserve">
<g>
	<path d="M56,3H8C5.2,3,3,5.2,3,8v48c0,2.8,2.2,5,5,5h48c2.8,0,5-2.2,5-5V8C61,5.2,58.8,3,56,3z M59,56c0,1.7-1.3,3-3,3H8
		c-1.7,0-3-1.3-3-3V8c0-1.7,1.3-3,3-3h48c1.7,0,3,1.3,3,3V56z"/>
	<path d="M16.3,11.8c-2.8,0-5,2.2-5,5s2.2,5,5,5s5-2.2,5-5S19.1,11.8,16.3,11.8z M16.3,19.8c-1.7,0-3-1.3-3-3s1.3-3,3-3s3,1.3,3,3
		S18,19.8,16.3,19.8z"/>
	<path d="M47.7,11.8c-2.8,0-5,2.2-5,5s2.2,5,5,5s5-2.2,5-5S50.4,11.8,47.7,11.8z M47.7,19.8c-1.7,0-3-1.3-3-3s1.3-3,3-3s3,1.3,3,3
		S49.3,19.8,47.7,19.8z"/>
	<path d="M47.7,42.2c-2.8,0-5,2.2-5,5s2.2,5,5,5s5-2.2,5-5S50.4,42.2,47.7,42.2z M47.7,50.2c-1.7,0-3-1.3-3-3s1.3-3,3-3s3,1.3,3,3
		S49.3,50.2,47.7,50.2z"/>
	<path d="M16.3,42.2c-2.8,0-5,2.2-5,5s2.2,5,5,5s5-2.2,5-5S19.1,42.2,16.3,42.2z M16.3,50.2c-1.7,0-3-1.3-3-3s1.3-3,3-3s3,1.3,3,3
		S18,50.2,16.3,50.2z"/>
	<path d="M32,27c-2.8,0-5,2.2-5,5s2.2,5,5,5s5-2.2,5-5S34.8,27,32,27z M32,35c-1.7,0-3-1.3-3-3s1.3-3,3-3s3,1.3,3,3S33.7,35,32,35z"
		/>
</g>
</svg>
