<?xml version="1.0" encoding="utf-8"?>
<!-- Generator: Adobe Illustrator 22.0.1, SVG Export Plug-In . SVG Version: 6.00 Build 0)  -->
<svg fill="#000000" width="52" height="52" version="1.1" id="lni_lni-download" xmlns="http://www.w3.org/2000/svg" xmlns:xlink="http://www.w3.org/1999/xlink" x="0px"
	 y="0px" viewBox="0 0 64 64" style="enable-background:new 0 0 64 64;" xml:space="preserve">
<g>
	<path d="M61,46.8c-0.6,0-1,0.4-1,1v12.1c-0.1,0-0.2,0.1-0.3,0.1H4.3c-0.1,0-0.3,0-0.3-0.1V47.8c0-0.6-0.4-1-1-1s-1,0.4-1,1v12.4
		c0,1,1,1.8,2.3,1.8h55.3c1.3,0,2.3-0.8,2.3-1.8V47.8C62,47.3,61.6,46.8,61,46.8z"/>
	<path d="M29.4,42.6c0.7,0.7,1.6,1,2.5,1c0.9,0,1.8-0.3,2.5-1l7.7-7.4c0.4-0.4,0.4-1,0-1.4c-0.4-0.4-1-0.4-1.4,0l-7.7,7.4
		c0,0-0.1,0.1-0.1,0.1V3c0-0.6-0.4-1-1-1c-0.6,0-1,0.4-1,1v38.3c-0.1,0-0.1-0.1-0.2-0.1l-7.6-7.4c-0.4-0.4-1-0.4-1.4,0s-0.4,1,0,1.4
		L29.4,42.6z"/>
</g>
</svg>
