<?xml version="1.0" encoding="utf-8"?>
<!-- Generator: Adobe Illustrator 22.0.1, SVG Export Plug-In . SVG Version: 6.00 Build 0)  -->
<svg fill="#000000" width="52" height="52" version="1.1" id="lni_lni-exit" xmlns="http://www.w3.org/2000/svg" xmlns:xlink="http://www.w3.org/1999/xlink" x="0px"
	 y="0px" viewBox="0 0 64 64" style="enable-background:new 0 0 64 64;" xml:space="preserve">
<g>
	<path d="M12.4,33h27.5c0.6,0,1-0.4,1-1c0-0.6-0.4-1-1-1H13l6.6-6.5c0.4-0.4,0.4-1,0-1.4c-0.4-0.4-1-0.4-1.4,0l-7.4,7.4
		c-0.5,0.5-0.8,1.1-0.8,1.8c0,0.7,0.3,1.3,0.8,1.8l7.4,7.4c0.2,0.2,0.4,0.3,0.7,0.3c0.3,0,0.5-0.1,0.7-0.3c0.4-0.4,0.4-1,0-1.4
		L12.4,33z"/>
	<path d="M46.3,2H34.6c-2,0-3.6,1.6-3.6,3.6v9.2c0,0.6,0.4,1,1,1c0.6,0,1-0.4,1-1V5.6C33,4.7,33.7,4,34.6,4h11.7
		c3.2,0,5.8,2.6,5.8,5.8v44.4c0,3.2-2.6,5.8-5.8,5.8H34.6c-0.9,0-1.6-0.7-1.6-1.6v-9.2c0-0.6-0.4-1-1-1c-0.6,0-1,0.4-1,1v9.2
		c0,2,1.6,3.6,3.6,3.6h11.7c4.3,0,7.8-3.5,7.8-7.8V9.8C54.1,5.5,50.6,2,46.3,2z"/>
</g>
</svg>
