<?xml version="1.0" encoding="utf-8"?>
<!-- Generator: Adobe Illustrator 22.0.0, SVG Export Plug-In . SVG Version: 6.00 Build 0)  -->
<svg fill="#000000" width="52" height="52" version="1.1" id="lni_lni-eye" xmlns="http://www.w3.org/2000/svg" xmlns:xlink="http://www.w3.org/1999/xlink" x="0px"
	 y="0px" viewBox="0 0 64 64" style="enable-background:new 0 0 64 64;" xml:space="preserve">
<g>
	<path d="M32,25.7c-3.5,0-6.3,2.8-6.3,6.3c0,3.5,2.8,6.3,6.3,6.3c3.5,0,6.3-2.8,6.3-6.3C38.3,28.5,35.5,25.7,32,25.7z M32,36.3
		c-2.4,0-4.3-1.9-4.3-4.3s1.9-4.3,4.3-4.3s4.3,1.9,4.3,4.3S34.4,36.3,32,36.3z"/>
	<path d="M61.8,31.2C55.3,21.1,44.2,15,32,15S8.7,21.1,2.2,31.2c-0.3,0.5-0.3,1.1,0,1.5C8.7,42.9,19.8,49,32,49
		c12.2,0,23.3-6.1,29.8-16.3h0C62.1,32.3,62.1,31.7,61.8,31.2z M32,47c-11.4,0-21.8-5.6-27.9-15c6.1-9.4,16.5-15,27.9-15
		c11.4,0,21.8,5.6,27.9,15C53.8,41.4,43.4,47,32,47z M60.1,31.7L60.1,31.7L60.1,31.7C60.1,31.7,60.1,31.7,60.1,31.7z"/>
</g>
</svg>
