<svg fill="#1C2033" width="52" height="52" viewBox="0 0 24 24" xmlns="http://www.w3.org/2000/svg"><path d="M12 22C17.5228 22 22 17.5228 22 12C22 6.47715 17.5228 2 12 2C6.47715 2 2 6.47715 2 12C2 17.5228 6.47715 22 12 22ZM9.83492 8.2128C9.83492 8.67396 9.46107 9.0478 8.99992 9.0478C8.53876 9.0478 8.16492 8.67396 8.16492 8.2128C8.16492 7.64703 8.38609 6.87793 9.0024 6.24656C9.63795 5.59548 10.6192 5.16504 11.9999 5.16504C13.439 5.16504 14.4292 5.72257 15.0443 6.46903C15.6285 7.17795 15.8349 8.00864 15.8349 8.55323C15.8349 9.83008 15.0619 10.8433 14.3989 11.5057C14.0544 11.8498 13.7034 12.1349 13.4263 12.3493C13.3333 12.4212 13.2425 12.4899 13.1664 12.5473L13.0737 12.6175C13.0271 12.6531 12.9915 12.6806 12.9643 12.7025C12.9444 12.7186 12.9347 12.727 12.932 12.7293L12.9312 12.73C12.8629 12.7963 12.849 12.8394 12.8446 12.8542C12.8374 12.8787 12.8349 12.9018 12.8349 12.9788V14C12.8349 14.4612 12.4611 14.835 11.9999 14.835C11.5388 14.835 11.1649 14.4612 11.1649 14V12.9788C11.1649 12.7376 11.1715 12.107 11.7732 11.5267C11.859 11.4439 11.975 11.3551 12.0621 11.2888C12.0979 11.2616 12.1338 11.2345 12.1706 11.2066C12.2427 11.1522 12.3186 11.0949 12.4044 11.0284C12.6567 10.8332 12.9455 10.5971 13.2186 10.3242C13.7909 9.7525 14.1649 9.14873 14.1649 8.55323C14.1649 8.36024 14.0713 7.91432 13.7555 7.53104C13.4706 7.18531 12.9609 6.83504 11.9999 6.83504C10.9806 6.83504 10.4619 7.14218 10.1974 7.41309C9.91374 7.70371 9.83492 8.04099 9.83492 8.2128ZM13 17.0001C13 17.5524 12.5523 18.0001 12 18.0001C11.4477 18.0001 11 17.5524 11 17.0001C11 16.4478 11.4477 16.0001 12 16.0001C12.5523 16.0001 13 16.4478 13 17.0001Z"/></svg>