<?xml version="1.0" encoding="utf-8"?>
<!-- Generator: Adobe Illustrator 22.0.1, SVG Export Plug-In . SVG Version: 6.00 Build 0)  -->
<svg fill="#000000" width="52" height="52" version="1.1" id="lni_lni-game" xmlns="http://www.w3.org/2000/svg" xmlns:xlink="http://www.w3.org/1999/xlink" x="0px"
	 y="0px" viewBox="0 0 64 64" style="enable-background:new 0 0 64 64;" xml:space="preserve">
<g>
	<path d="M43.2,34.9c-1.3,0-2.3,1-2.3,2.3c0,1.3,1,2.3,2.3,2.3c1.3,0,2.3-1,2.3-2.3C45.5,36,44.4,34.9,43.2,34.9z"/>
	<path d="M59.4,25.8c-1.7-1.8-4.1-2.8-6.6-2.8H33V5.6c0-0.6-0.4-1-1-1s-1,0.4-1,1v17.4H11.2c-5.1,0-9.2,4.1-9.2,9.1v18
		c0,5,4.1,9.1,9.2,9.1c5,0,9.1-3.9,9.2-8.7h23.1c0.2,4.9,4.2,8.8,9.2,8.8c5.1,0,9.2-4.1,9.2-9.1V32.2C62,29.8,61.1,27.6,59.4,25.8z
		 M60,50.3c0,3.9-3.2,7.1-7.2,7.1c-4,0-7.2-3.2-7.2-7.1c0-1-0.7-1.7-1.7-1.7H20.2c-1,0-1.7,0.7-1.7,1.7c0,3.9-3.3,7-7.2,7
		S4,54.1,4,50.2v-18c0-3.9,3.3-7.1,7.2-7.1h41.6c1.9,0,3.8,0.8,5.2,2.2c1.3,1.3,2,3.1,2,4.9V50.3z"/>
	<path d="M20.7,36.3h-3.6v-3.6c0-0.6-0.4-1-1-1s-1,0.4-1,1v3.6h-3.6c-0.6,0-1,0.4-1,1s0.4,1,1,1h3.6v3.5c0,0.6,0.4,1,1,1s1-0.4,1-1
		v-3.5h3.6c0.6,0,1-0.4,1-1S21.3,36.3,20.7,36.3z"/>
	<path d="M52.5,34.9c-1.3,0-2.3,1-2.3,2.3c0,1.3,1,2.3,2.3,2.3c1.3,0,2.3-1,2.3-2.3C54.8,36,53.8,34.9,52.5,34.9z"/>
	<path d="M47.8,34.9c1.3,0,2.3-1,2.3-2.3c0-1.3-1-2.3-2.3-2.3c-1.3,0-2.3,1-2.3,2.3C45.5,33.9,46.5,34.9,47.8,34.9z"/>
	<path d="M47.8,39.6c-1.3,0-2.3,1-2.3,2.3c0,1.3,1,2.3,2.3,2.3c1.3,0,2.3-1,2.3-2.3C50.2,40.6,49.1,39.6,47.8,39.6z"/>
</g>
</svg>
