<svg fill="#1C2033" width="52" height="52" viewBox="0 0 64 64" xmlns="http://www.w3.org/2000/svg"><path d="M23.3 25.9H21.1V23.8C21.1 22.6 20.1 21.5 18.8 21.5C17.5 21.5 16.5 22.5 16.5 23.8V25.9H14.3C13.1 25.9 12 26.9 12 28.2C12 29.5 13 30.5 14.3 30.5H16.5V32.6C16.5 33.8 17.5 34.9 18.8 34.9C20.1 34.9 21.1 33.9 21.1 32.6V30.5H23.3C24.5 30.5 25.6 29.5 25.6 28.2C25.6 26.9 24.5 25.9 23.3 25.9Z"/><path d="M42.8988 25.0001C42.9988 25.1001 42.9988 25.3001 43.0988 25.4001C43.1988 25.5001 43.2988 25.6001 43.3988 25.8001C43.4988 25.9001 43.5988 26.0001 43.6988 26.1001C43.7988 26.2001 43.9988 26.2001 44.0988 26.3001C44.1988 26.4001 44.3988 26.4001 44.4988 26.4001C44.6988 26.4001 44.7988 26.5001 44.8988 26.5001C45.4988 26.5001 46.0988 26.3001 46.4988 25.8001C46.5988 25.7001 46.6988 25.6001 46.7988 25.4001C46.8988 25.3001 46.8988 25.1001 46.9988 25.0001C46.9988 24.9001 47.0988 24.7001 47.0988 24.6001C47.0988 24.5001 47.0988 24.3001 47.0988 24.2001C47.0988 23.6001 46.8988 23.0001 46.3988 22.6001C45.8988 22.1001 45.0988 21.8001 44.3988 22.0001C44.2988 22.0001 44.0988 22.1001 43.9988 22.1001C43.8988 22.1001 43.6988 22.2001 43.5988 22.3001C43.4988 22.4001 43.3988 22.5001 43.2988 22.6001C43.1988 22.7001 43.0988 22.8001 42.9988 23.0001C42.9988 23.0001 42.9988 23.1001 42.8988 23.3001C42.8988 23.4001 42.7988 23.6001 42.7988 23.7001C42.7988 23.8001 42.7988 24.0001 42.7988 24.1001C42.7988 24.3001 42.7988 24.4001 42.7988 24.5001C42.7988 24.7001 42.8988 24.8001 42.8988 25.0001Z"/><path d="M42.8996 28.5005C42.8996 28.3005 42.8996 28.2005 42.8996 28.1005C42.8996 27.9005 42.7996 27.8005 42.7996 27.7005C42.6996 27.6005 42.6996 27.4005 42.5996 27.3005C42.4996 27.2005 42.3996 27.1005 42.2996 27.0005C41.7996 26.5005 40.9996 26.2005 40.2996 26.4005C40.0996 26.4005 39.9996 26.5005 39.8996 26.5005C39.7996 26.6005 39.5996 26.6005 39.4996 26.7005C39.3996 26.8005 39.2996 26.9005 39.1996 27.0005C39.0996 27.1005 38.9996 27.2005 38.8996 27.3005C38.7996 27.4005 38.6996 27.6005 38.6996 27.7005C38.5996 27.8005 38.5996 28.0005 38.5996 28.1005C38.5996 28.2005 38.5996 28.4005 38.5996 28.5005C38.5996 28.6005 38.5996 28.8005 38.5996 28.9005C38.5996 29.0005 38.6996 29.2005 38.6996 29.3005C38.7996 29.4005 38.7996 29.6005 38.8996 29.7005C38.9996 29.8005 39.0996 29.9005 39.1996 30.0005C39.2996 30.1005 39.3996 30.2005 39.4996 30.3005C39.5996 30.4005 39.7996 30.5005 39.8996 30.5005C39.9996 30.6005 40.1996 30.6005 40.2996 30.6005C40.3996 30.6005 40.5996 30.7005 40.6996 30.7005C41.2996 30.7005 41.8996 30.5005 42.2996 30.0005C42.3996 29.9005 42.4996 29.8005 42.5996 29.7005C42.6996 29.6005 42.7996 29.4005 42.7996 29.3005C42.8996 29.2005 42.8996 29.0005 42.8996 28.9005C42.7996 28.8005 42.8996 28.6005 42.8996 28.5005Z"/><path d="M47.0988 32.3996C46.9988 32.2996 46.9988 32.0996 46.8988 31.9996C46.7988 31.8996 46.6988 31.7996 46.5988 31.6996C45.7988 30.8996 44.2988 30.8996 43.3988 31.6996C43.2988 31.7996 43.1988 31.8996 43.0988 31.9996C42.9988 32.0996 42.8988 32.2996 42.8988 32.3996C42.8988 32.4996 42.7988 32.6996 42.7988 32.7996C42.7988 32.8996 42.7988 33.0996 42.7988 33.1996C42.7988 33.2996 42.7988 33.4996 42.7988 33.5996C42.7988 33.6996 42.8988 33.8996 42.8988 33.9996C42.9988 34.0996 42.9988 34.2996 43.0988 34.3996C43.1988 34.4996 43.2988 34.5996 43.3988 34.6996C43.4988 34.7996 43.5988 34.8996 43.6988 34.9996C43.7988 35.0996 43.9988 35.0996 44.0988 35.1996C44.1988 35.2996 44.3988 35.2996 44.4988 35.2996C44.5988 35.2996 44.7988 35.2996 44.8988 35.2996C44.9988 35.2996 45.1988 35.2996 45.2988 35.2996C45.4988 35.2996 45.5988 35.1996 45.6988 35.1996C45.7988 35.1996 45.9988 35.0996 46.0988 34.9996C46.1988 34.8996 46.2988 34.7996 46.3988 34.6996C46.4988 34.5996 46.5988 34.4996 46.6988 34.3996C46.7988 34.2996 46.7988 34.0996 46.8988 33.9996C46.9988 33.8996 46.9988 33.6996 46.9988 33.5996C46.9988 33.4996 46.9988 33.2996 46.9988 33.1996C46.9988 33.0996 46.9988 32.8996 46.9988 32.7996C47.1988 32.6996 47.0988 32.4996 47.0988 32.3996Z"/><path d="M47.7 26.8988C47.3 27.2988 47 27.8988 47 28.4988C47 29.0988 47.2 29.6988 47.7 30.0988C48.2 30.4988 48.7 30.7988 49.3 30.7988C49.9 30.7988 50.5 30.5988 50.9 30.0988C51.3 29.5988 51.6 29.0988 51.6 28.4988C51.6 27.8988 51.4 27.2988 50.9 26.8988C50.1 26.0988 48.6 26.0988 47.7 26.8988Z"/><path d="M62.4997 37.9996L58.7997 23.1996C57.1997 16.9996 51.6997 12.5996 45.2997 12.5996H18.7997C12.3997 12.5996 6.79968 16.8996 5.29968 23.1996L1.49968 37.9996C0.699679 41.1996 1.39968 44.5996 3.39968 47.1996C5.39968 49.7996 8.49968 51.2996 11.8997 51.2996C16.1997 51.2996 20.0997 48.6996 21.7997 44.7996L22.8997 42.2996H41.1997L42.2997 44.7996C43.9997 48.7996 47.8997 51.2996 52.1997 51.2996C55.4997 51.2996 58.5997 49.7996 60.6997 47.1996C62.5997 44.5996 63.2997 41.1996 62.4997 37.9996ZM56.9997 44.3996C55.7997 45.8996 53.9997 46.7996 52.0997 46.7996C49.5997 46.7996 47.2997 45.2996 46.3997 42.9996L44.7997 39.1996C44.3997 38.3996 43.5997 37.7996 42.6997 37.7996H21.3997C20.4997 37.7996 19.6997 38.2996 19.2997 39.1996L17.6997 42.9996C16.6997 45.2996 14.4997 46.7996 11.9997 46.7996C9.99968 46.7996 8.19968 45.9996 6.99968 44.3996C5.79968 42.8996 5.39968 40.8996 5.89968 39.0996L9.59968 24.2996C10.6997 20.0996 14.3997 17.0996 18.7997 17.0996H45.1997C49.4997 17.0996 53.2997 19.9996 54.3997 24.2996L58.0997 39.0996C58.5997 40.9996 58.1997 42.8996 56.9997 44.3996Z"/></svg>