<?xml version="1.0" encoding="utf-8"?>
<!-- Generator: Adobe Illustrator 22.0.1, SVG Export Plug-In . SVG Version: 6.00 Build 0)  -->
<svg fill="#000000" width="52" height="52" version="1.1" id="lni_lni-graph-alt-4" xmlns="http://www.w3.org/2000/svg" xmlns:xlink="http://www.w3.org/1999/xlink"
	 x="0px" y="0px" viewBox="0 0 64 64" style="enable-background:new 0 0 64 64;" xml:space="preserve">
<g>
	<path d="M61,60h-9.2V28.9c0-0.6-0.4-1-1-1s-1,0.4-1,1V60H35V38.7c0-0.6-0.4-1-1-1s-1,0.4-1,1V60H17.6V48.6c0-0.6-0.4-1-1-1
		s-1,0.4-1,1V60H8.5C6,60,4,58,4,55.5V3c0-0.6-0.4-1-1-1S2,2.4,2,3v52.5C2,59.1,4.9,62,8.5,62H61c0.6,0,1-0.4,1-1S61.6,60,61,60z"/>
	<path d="M16,38c3.6,0,6.5-2.9,6.5-6.5c0-1.1-0.3-2.1-0.7-2.9l5.5-3.5c0.1-0.1,0.2-0.2,0.3-0.3c1.2,1.5,3,2.4,5,2.4
		c3.6,0,6.5-2.9,6.5-6.5c0-1-0.2-1.9-0.6-2.7l7.2-4c1.2,1.5,3,2.5,5.1,2.5c3.6,0,6.5-2.9,6.5-6.5c0-3.6-2.9-6.5-6.5-6.5
		s-6.5,2.9-6.5,6.5c0,0.8,0.1,1.5,0.4,2.2l-7.3,4c-1.2-1.3-2.9-2.1-4.8-2.1c-3.6,0-6.5,2.9-6.5,6.5c0,0.9,0.2,1.8,0.5,2.6
		c-0.2,0-0.3,0-0.4,0.1L20.6,27c-1.2-1.2-2.8-1.9-4.6-1.9c-3.6,0-6.5,2.9-6.5,6.5S12.5,38,16,38z M50.8,5.6c2.5,0,4.5,2,4.5,4.5
		s-2,4.5-4.5,4.5s-4.5-2-4.5-4.5S48.4,5.6,50.8,5.6z M32.7,16.2c2.5,0,4.5,2,4.5,4.5s-2,4.5-4.5,4.5s-4.5-2-4.5-4.5
		S30.2,16.2,32.7,16.2z M16,27.1c2.5,0,4.5,2,4.5,4.5c0,2.5-2,4.5-4.5,4.5s-4.5-2-4.5-4.5C11.5,29.1,13.6,27.1,16,27.1z"/>
</g>
</svg>
