<?xml version="1.0" encoding="utf-8"?>
<!-- Generator: Adobe Illustrator 22.0.0, SVG Export Plug-In . SVG Version: 6.00 Build 0)  -->
<svg fill="#000000" width="52" height="52" version="1.1" id="lni_lni-graph" xmlns="http://www.w3.org/2000/svg" xmlns:xlink="http://www.w3.org/1999/xlink" x="0px"
	 y="0px" viewBox="0 0 64 64" style="enable-background:new 0 0 64 64;" xml:space="preserve">
<g>
	<path d="M46.3,14.1c-2.9,0-5.3,2.4-5.3,5.3c0,0.4,0.1,0.9,0.2,1.3l-3.5,2.3c-0.1,0.1-0.2,0.1-0.3,0l-3.5-1.1c-0.1,0-0.2,0-0.3,0
		c-0.4-2.5-2.6-4.4-5.2-4.4c-2.9,0-5.3,2.4-5.3,5.3c0,0.8,0.2,1.5,0.5,2.2c-0.2,0-0.3,0.1-0.4,0.2c-1.1,0.9-2.3,1.8-3.4,2.7
		c-1-1-2.3-1.5-3.7-1.5c-2.9,0-5.3,2.4-5.3,5.3s2.4,5.3,5.3,5.3s5.3-2.4,5.3-5.3c0-0.7-0.1-1.4-0.4-2c1.1-0.9,2.4-1.9,3.5-2.8
		c0.1-0.1,0.2-0.2,0.2-0.3c1,1,2.3,1.6,3.7,1.6c2.5,0,4.6-1.7,5.1-4.1l3.2,1c0.2,0.1,0.5,0.1,0.7,0.1c0.5,0,0.9-0.1,1.3-0.4l3.2-2.1
		c1,1.3,2.5,2.1,4.2,2.1c2.9,0,5.3-2.4,5.3-5.3S49.2,14.1,46.3,14.1z M16.2,34.7c-1.8,0-3.3-1.5-3.3-3.3s1.5-3.3,3.3-3.3
		s3.3,1.5,3.3,3.3S18,34.7,16.2,34.7z M28.5,25.9c-1.8,0-3.3-1.5-3.3-3.3s1.5-3.3,3.3-3.3s3.3,1.5,3.3,3.3S30.3,25.9,28.5,25.9z
		 M46.3,22.6c-1.8,0-3.3-1.5-3.3-3.3s1.5-3.3,3.3-3.3c1.8,0,3.3,1.5,3.3,3.3S48.1,22.6,46.3,22.6z"/>
	<path d="M55.4,7.1H8.6C5,7.1,2,10.1,2,13.7v23.2c0,3.6,3,6.6,6.6,6.6H31v11.3H18.8c-0.6,0-1,0.4-1,1s0.4,1,1,1h26.4
		c0.6,0,1-0.4,1-1s-0.4-1-1-1H33V43.5h22.4c3.6,0,6.6-3,6.6-6.6V13.7C62,10.1,59,7.1,55.4,7.1z M60,36.9c0,2.5-2.1,4.6-4.6,4.6H8.6
		c-2.5,0-4.6-2.1-4.6-4.6V13.7c0-2.5,2.1-4.6,4.6-4.6h46.8c2.5,0,4.6,2.1,4.6,4.6V36.9z"/>
</g>
</svg>
