<?xml version="1.0" encoding="utf-8"?>
<!-- Generator: Adobe Illustrator 22.0.0, SVG Export Plug-In . SVG Version: 6.00 Build 0)  -->
<svg fill="#000000" width="52" height="52" version="1.1" id="lni_lni-hand" xmlns="http://www.w3.org/2000/svg" xmlns:xlink="http://www.w3.org/1999/xlink" x="0px"
	 y="0px" viewBox="0 0 64 64" style="enable-background:new 0 0 64 64;" xml:space="preserve">
<style type="text/css">
	.st0{fill:#030104;}
</style>
<path class="st0" d="M51.8,45.6l0-30.1c0-2.4-2.2-4.4-4.9-4.4c-1.1,0-2.1,0.3-2.9,0.9V8.8c0-2.4-2.2-4.4-4.9-4.4
	c-1.4,0-2.6,0.5-3.5,1.3c-0.8-1.4-2.4-2.3-4.3-2.3c-2.6,0-4.7,1.8-4.9,4.1c-0.8-0.6-1.8-0.9-2.9-0.9c-2.7,0-4.9,2-4.9,4.4v24.6
	l-3.5-4.2C13.2,29,9.7,28.2,7,29.6c-1.3,0.7-2.2,1.9-2.5,3.3c-0.3,1.4,0,2.9,1,4.2c1.8,2.4,3.7,4.9,5.5,7.3l3.3,4.4
	c0.5,0.6,0.9,1.3,1.4,1.9c1.4,1.9,2.8,4,4.7,5.6c3.6,3.1,8.7,4.2,13.4,4.2c2.3,0,4.6-0.3,6.6-0.7C51.9,57.4,51.8,48.8,51.8,45.6z
	 M40,57.9c-5.7,1.2-13.5,1.1-18.3-3.1c-1.7-1.4-3-3.3-4.4-5.2c-0.5-0.7-0.9-1.3-1.4-2l-3.3-4.4C10.7,40.8,8.9,38.4,7,36
	c-0.6-0.8-0.8-1.7-0.6-2.6c0.2-0.8,0.7-1.5,1.5-2c1.8-1,4.3-0.4,5.6,1.4l5.3,6.3c0.3,0.3,0.7,0.4,1.1,0.3c0.4-0.1,0.7-0.5,0.7-0.9
	V11.1c0-1.3,1.3-2.4,2.9-2.4c1.6,0,2.8,1,2.9,2.3v0.4c0,0,0,0,0,0.1v17c0,0.6,0.4,1,1,1s1-0.4,1-1V11.1c0,0,0-0.1,0-0.1V7.8
	c0-1.3,1.3-2.4,2.9-2.4s2.9,1.1,2.9,2.4v1v19.9v0.4c0,0.6,0.4,1,1,1s1-0.4,1-1v-0.4V8.8c0-1.3,1.3-2.4,2.9-2.4S42,7.5,42,8.8v6.5
	c0,0,0,0.1,0,0.1v2.7c0,0,0,0,0,0.1v12.9c0,0.6,0.4,1,1,1s1-0.4,1-1V15.4c0.1-1.3,1.3-2.3,2.9-2.3c1.6,0,2.9,1.1,2.9,2.4v29.8l0,0.4
	C49.8,48.9,49.9,55.8,40,57.9z"/>
</svg>
