<?xml version="1.0" encoding="utf-8"?>
<!-- Generator: Adobe Illustrator 22.0.1, SVG Export Plug-In . SVG Version: 6.00 Build 0)  -->
<svg fill="#000000" width="52" height="52" version="1.1" id="lni_lni-helicopter" xmlns="http://www.w3.org/2000/svg" xmlns:xlink="http://www.w3.org/1999/xlink" x="0px"
	 y="0px" viewBox="0 0 64 64" style="enable-background:new 0 0 64 64;" xml:space="preserve">
<path d="M61,23.1c-0.6,0-1,0.4-1,1v1.6H35.6v-3.4c0-1-0.8-1.8-1.8-1.8H22.4v-8.5h14.7c0.6,0,1-0.4,1-1s-0.4-1-1-1H5.6
	c-0.6,0-1,0.4-1,1s0.4,1,1,1h14.7v8.5H9c-3.8,0-7,3.1-7,7v14.3c0,1,0.8,1.8,1.8,1.8h6.1v8.5H6c-0.7,0-1.3-0.5-1.3-1.1
	c0-0.6-0.4-1-1-1s-1,0.4-1,1c0,1.7,1.5,3.1,3.3,3.1h26c0.6,0,1-0.4,1-1s-0.4-1-1-1h-6.9v-8.5h8.7c1,0,1.8-0.8,1.8-1.8v-3.3L60,35.8
	v1.5c0,0.6,0.4,1,1,1s1-0.4,1-1V24.1C62,23.5,61.6,23.1,61,23.1z M23.1,52.1H11.9v-8.5h11.2V52.1z M33.6,41.5H4V27.4
	c0-2.7,2.2-5,5-5h24.7V41.5z M35.6,36.4v-8.7H60v6L35.6,36.4z"/>
</svg>
