<?xml version="1.0" encoding="utf-8"?>
<!-- Generator: Adobe Illustrator 22.0.0, SVG Export Plug-In . SVG Version: 6.00 Build 0)  -->
<svg fill="#000000" width="52" height="52" version="1.1" id="lni_lni-help" xmlns="http://www.w3.org/2000/svg" xmlns:xlink="http://www.w3.org/1999/xlink" x="0px"
	 y="0px" viewBox="0 0 64 64" style="enable-background:new 0 0 64 64;" xml:space="preserve">
<g>
	<path d="M44.4,13.6C43.8,7.7,38.9,2.9,32.9,2.1c-5.5-0.6-10.7,2.1-13.3,7c-0.3,0.5-0.1,1.1,0.4,1.3c0.5,0.3,1.1,0.1,1.3-0.4
		c2.2-4.1,6.6-6.5,11.3-6c5.1,0.7,9.2,4.8,9.7,9.7c0.5,4.7-2,9.2-6.2,11.2c-3.6,1.7-5.9,5.5-5.9,9.5v13.8c0,0.6,0.4,1,1,1s1-0.4,1-1
		V34.5c0-3.3,1.9-6.4,4.7-7.7C42.1,24.4,45,19.1,44.4,13.6z"/>
	<path d="M31.3,55.9c-1.4,0-2.5,1.1-2.5,2.5c0,1.4,1.1,2.5,2.5,2.5s2.5-1.1,2.5-2.5C33.9,57.1,32.7,55.9,31.3,55.9z"/>
</g>
</svg>
