<?xml version="1.0" encoding="utf-8"?>
<!-- Generator: Adobe Illustrator 22.0.1, SVG Export Plug-In . SVG Version: 6.00 Build 0)  -->
<svg fill="#000000" width="52" height="52" version="1.1" id="lni_lni-house-alt-1" xmlns="http://www.w3.org/2000/svg" xmlns:xlink="http://www.w3.org/1999/xlink"
	 x="0px" y="0px" viewBox="0 0 64 64" style="enable-background:new 0 0 64 64;" xml:space="preserve">
<path d="M59.6,19.8L35.2,2.7c-1.9-1.3-4.5-1.3-6.4,0L4.4,19.8c-1.5,1-2.4,2.8-2.4,4.6v32.3c0,3.1,2.5,5.6,5.6,5.6h48.8
	c3.1,0,5.6-2.5,5.6-5.6V24.4C62,22.6,61.1,20.9,59.6,19.8z M42.9,60.3H21.1V46.8c0-1.2,0.6-2.3,1.5-2.9l7.3-5.1
	c1.2-0.9,2.9-0.9,4.1,0l7.3,5.1c1,0.7,1.5,1.8,1.5,2.9V60.3z M60,56.7c0,2-1.6,3.6-3.6,3.6H44.9V46.8c0-1.8-0.9-3.5-2.4-4.6
	l-7.3-5.1c-1.9-1.3-4.5-1.3-6.4,0l-7.3,5.1c-1.5,1-2.4,2.8-2.4,4.6v13.5H7.6c-2,0-3.6-1.6-3.6-3.6V24.4c0-1.2,0.6-2.3,1.5-2.9
	L29.9,4.3c0.6-0.4,1.3-0.6,2.1-0.6s1.4,0.2,2.1,0.6l24.4,17.1c1,0.7,1.5,1.8,1.5,2.9V56.7z"/>
</svg>
