<?xml version="1.0" encoding="utf-8"?>
<!-- Generator: Adobe Illustrator 22.0.1, SVG Export Plug-In . SVG Version: 6.00 Build 0)  -->
<svg fill="#000000" width="52" height="52" version="1.1" id="lni_lni-home-documents" xmlns="http://www.w3.org/2000/svg" xmlns:xlink="http://www.w3.org/1999/xlink"
	 x="0px" y="0px" viewBox="0 0 64 64" style="enable-background:new 0 0 64 64;" xml:space="preserve">
<g>
	<path d="M25.4,12.3c-0.4-0.3-0.9-0.3-1.2,0l-9.4,7.2c-0.4,0.3-0.5,1-0.2,1.4c0.3,0.4,1,0.5,1.4,0.2l2.6-2v7.7c0,0.6,0.4,1,1,1h10.3
		c0.6,0,1-0.4,1-1v-7.7l2.6,2c0.2,0.1,0.4,0.2,0.6,0.2c0.3,0,0.6-0.1,0.8-0.4c0.3-0.4,0.3-1.1-0.2-1.4L25.4,12.3z M28.9,18v7.8h-8.3
		V18c0-0.1,0-0.3-0.1-0.4l4.2-3.2l4.2,3.2C29,17.7,28.9,17.8,28.9,18z"/>
	<path d="M17.8,40.7H27c0.6,0,1-0.4,1-1s-0.4-1-1-1h-9.3c-0.6,0-1,0.4-1,1S17.2,40.7,17.8,40.7z"/>
	<path d="M31.7,48.1H17.8c-0.6,0-1,0.4-1,1s0.4,1,1,1h13.9c0.6,0,1-0.4,1-1S32.3,48.1,31.7,48.1z"/>
	<path d="M56.8,34.8h-8.9V7.7c0-3.1-2.6-5.7-5.7-5.7H8.9C5.8,2,3.2,4.6,3.2,7.7v48.6c0,3.1,2.6,5.7,5.7,5.7H51h2.1h2.5
		c2.8,0,5.1-2.3,5.1-5.1V38.8C60.8,36.5,59,34.8,56.8,34.8z M5.2,56.3V7.7c0-2,1.7-3.7,3.7-3.7h33.2c2,0,3.7,1.7,3.7,3.7v28.1v0.4
		v20.8c0,1.2,0.4,2.3,1.1,3.1h-38C6.9,60,5.2,58.3,5.2,56.3z M58.8,56.9c0,1.7-1.4,3.1-3.1,3.1h-2.5H51c-1.7,0-3.1-1.4-3.1-3.1V36.8
		h8.9c1.1,0,2,0.9,2,2V56.9z"/>
</g>
</svg>
