<?xml version="1.0" encoding="utf-8"?>
<!-- Generator: Adobe Illustrator 22.0.1, SVG Export Plug-In . SVG Version: 6.00 Build 0)  -->
<svg fill="#000000" width="52" height="52" version="1.1" id="lni_lni-id-card" xmlns="http://www.w3.org/2000/svg" xmlns:xlink="http://www.w3.org/1999/xlink" x="0px"
	 y="0px" viewBox="0 0 64 64" style="enable-background:new 0 0 64 64;" xml:space="preserve">
<g>
	<path d="M58,14.5H33V6.6c0-0.6-0.4-1-1-1s-1,0.4-1,1v7.8H6c-2.2,0-4,1.8-4,4v35.9c0,2.2,1.8,4,4,4h52c2.2,0,4-1.8,4-4V18.5
		C62,16.3,60.2,14.5,58,14.5z M60,54.4c0,1.1-0.9,2-2,2H6c-1.1,0-2-0.9-2-2V18.5c0-1.1,0.9-2,2-2h52c1.1,0,2,0.9,2,2V54.4z"/>
	<path d="M19.9,34.7c3.4,0,6.1-2.8,6.1-6.1s-2.8-6.1-6.1-6.1s-6.1,2.8-6.1,6.1S16.5,34.7,19.9,34.7z M19.9,24.5
		c2.3,0,4.1,1.9,4.1,4.1c0,2.3-1.9,4.1-4.1,4.1c-2.3,0-4.1-1.9-4.1-4.1C15.7,26.3,17.6,24.5,19.9,24.5z"/>
	<path d="M19.9,39.7c-4.4,0-7.9,3.6-7.9,7.9c0,0.6,0.4,1,1,1s1-0.4,1-1c0-3.3,2.7-5.9,5.9-5.9c3.3,0,5.9,2.7,5.9,5.9
		c0,0.6,0.4,1,1,1s1-0.4,1-1C27.8,43.2,24.2,39.7,19.9,39.7z"/>
	<path d="M49.3,26.1H36.5c-0.6,0-1,0.4-1,1s0.4,1,1,1h12.7c0.6,0,1-0.4,1-1S49.8,26.1,49.3,26.1z"/>
	<path d="M49.3,35.2H36.5c-0.6,0-1,0.4-1,1s0.4,1,1,1h12.7c0.6,0,1-0.4,1-1S49.8,35.2,49.3,35.2z"/>
	<path d="M44.8,46.1h-8.2c-0.6,0-1,0.4-1,1s0.4,1,1,1h8.2c0.6,0,1-0.4,1-1S45.3,46.1,44.8,46.1z"/>
</g>
</svg>
