<?xml version="1.0" encoding="utf-8"?>
<!-- Generator: Adobe Illustrator 22.0.1, SVG Export Plug-In . SVG Version: 6.00 Build 0)  -->
<svg fill="#000000" width="52" height="52" version="1.1" id="lni_lni-image" xmlns="http://www.w3.org/2000/svg" xmlns:xlink="http://www.w3.org/1999/xlink" x="0px"
	 y="0px" viewBox="0 0 64 64" style="enable-background:new 0 0 64 64;" xml:space="preserve">
<style type="text/css">
	.st0{display:none;fill:none;stroke:#000000;stroke-width:3.5;stroke-miterlimit:10;}
</style>
<g>
	<path d="M39.8,30.4c4.2,0,7.5-3.4,7.5-7.5s-3.4-7.5-7.5-7.5s-7.5,3.4-7.5,7.5S35.7,30.4,39.8,30.4z M39.8,17.3
		c3.1,0,5.5,2.5,5.5,5.5s-2.5,5.5-5.5,5.5s-5.5-2.5-5.5-5.5S36.8,17.3,39.8,17.3z"/>
	<path d="M53.5,2H10.5c-2.8,0-5,2.2-5,5v50c0,2.8,2.2,5,5,5h43.1c2.8,0,5-2.2,5-5V7C58.5,4.2,56.3,2,53.5,2z M10.5,4h43.1
		c1.7,0,3,1.3,3,3v27.9c0,0-0.1,0-0.1,0c-1,0.5-2.3,1.5-3.2,2.1c-1.4,0.9-2.8,2.1-4.1,3.3c-3.9,3.4-7.6,6.7-12.7,4.8
		c-1.1-0.4-2-1.2-3-2.1l-0.4-0.3c-2.4-1.9-4.9-3.9-7.9-4.8c-5.1-1.6-9.8,1.4-13.9,4.1c-1.2,0.8-2.4,1.5-3.6,2.2c0,0-0.1,0.1-0.2,0.1
		V7C7.5,5.3,8.8,4,10.5,4z M53.5,60H10.5c-1.7,0-3-1.3-3-3V46.5c0.6-0.3,1.2-0.7,1.2-0.7c1.2-0.6,2.4-1.4,3.6-2.2
		c4-2.5,8.1-5.1,12.3-3.8c2.7,0.8,5,2.6,7.2,4.5l0.4,0.3c1,0.9,2.2,1.9,3.6,2.4c1.3,0.5,2.5,0.7,3.6,0.7c4.4,0,7.9-3.1,11-5.8
		c1.3-1.2,2.6-2.3,3.9-3.2c0.6-0.4,1.4-1,2.2-1.5V57C56.5,58.7,55.2,60,53.5,60z"/>
</g>
<rect x="15.7" y="15.7" class="st0" width="32.6" height="32.6"/>
</svg>
