<?xml version="1.0" encoding="utf-8"?>
<!-- Generator: Adobe Illustrator 22.0.1, SVG Export Plug-In . SVG Version: 6.00 Build 0)  -->
<svg fill="#000000" width="52" height="52" version="1.1" id="lni_lni-int-commercial-mail"
	 xmlns="http://www.w3.org/2000/svg" xmlns:xlink="http://www.w3.org/1999/xlink" x="0px" y="0px" viewBox="0 0 64 64"
	 style="enable-background:new 0 0 64 64;" xml:space="preserve">
<path d="M58,29.6H36.4c0.3-1.2,0.4-2.5,0.4-3.7c0-3.1-0.8-6.2-2.4-8.8c-3.1-5.3-8.6-8.5-14.8-8.6h-0.5c-0.1,0-0.3,0-0.4,0
	c-0.1,0-0.2,0-0.4,0c-5.8,0.3-11,3.5-14,8.5C2.8,19.7,2,22.8,2,25.9c0,3.7,1.2,7.3,3.3,10.3c2.9,4,7.4,6.5,12.3,7v8.3
	c0,2.2,1.8,4,4,4H58c2.2,0,4-1.8,4-4V33.6C62,31.4,60.2,29.6,58,29.6z M59.4,32.2L39.8,40l-19.6-7.8c0.4-0.4,0.9-0.6,1.4-0.6H58
	C58.5,31.6,59,31.9,59.4,32.2z M19,10.8c1.6,2.5,2.7,5.3,3.5,8.2c-2.3,0.2-4.7,0.2-7-0.1C16.3,16.1,17.4,13.3,19,10.8z M15.2,20.9
	c1.4,0.1,2.8,0.2,4.2,0.2c1.2,0,2.4-0.1,3.5-0.2c0.3,1.6,0.5,3.3,0.5,5c0,1.3-0.1,2.5-0.3,3.7h-1.5c-1.8,0-3.3,1.2-3.8,2.8
	c-0.8,0-1.6,0.1-2.3,0.1c0,0,0,0,0,0c-0.5-2.2-0.8-4.4-0.8-6.7C14.7,24.2,14.8,22.5,15.2,20.9C15.1,20.9,15.2,20.9,15.2,20.9z
	 M17.6,34.4v4.1c-0.6-1.3-1.2-2.6-1.6-4C16.6,34.5,17.1,34.5,17.6,34.4z M34.8,25.9c0,1.3-0.2,2.5-0.5,3.7h-9.2
	c0.2-1.2,0.3-2.5,0.3-3.7c0-1.8-0.2-3.5-0.5-5.2c2.8-0.4,5.5-1,8.2-1.9C34.2,21,34.8,23.4,34.8,25.9z M32,17
	c-2.4,0.8-4.9,1.4-7.5,1.7c-0.7-2.8-1.8-5.6-3.3-8.1C25.6,11.1,29.5,13.4,32,17z M16.7,10.7c-1.4,2.5-2.5,5.2-3.2,7.9
	C11.3,18.3,9,17.8,6.8,17C9.2,13.7,12.7,11.4,16.7,10.7z M4,25.9c0-2.5,0.6-4.9,1.7-7.1c2.4,0.8,4.9,1.4,7.4,1.8
	c-0.3,1.7-0.5,3.5-0.5,5.3c0,2.3,0.3,4.7,0.8,6.9c-2.3,0.3-4.6,0.8-6.9,1.6c0,0,0,0,0,0C4.9,31.9,4,29,4,25.9z M7.9,36.1
	c2-0.6,4.1-1.1,6.1-1.3c0.7,2.2,1.6,4.3,2.7,6.3C13.3,40.5,10.2,38.7,7.9,36.1z M58,53.5H21.6c-1.1,0-2-0.9-2-2v-9.2c0,0,0,0,0,0
	c0,0,0,0,0,0v-8.2L39.5,42c0.1,0,0.2,0.1,0.4,0.1s0.3,0,0.4-0.1L60,34.1v17.4C60,52.6,59.1,53.5,58,53.5z"/>
</svg>
