<?xml version="1.0" encoding="utf-8"?>
<!-- Generator: Adobe Illustrator 22.0.0, SVG Export Plug-In . SVG Version: 6.00 Build 0)  -->
<svg fill="#000000" width="52" height="52" version="1.1" id="lni_lni-layers" xmlns="http://www.w3.org/2000/svg" xmlns:xlink="http://www.w3.org/1999/xlink" x="0px"
	 y="0px" viewBox="0 0 64 64" style="enable-background:new 0 0 64 64;" xml:space="preserve">
<path d="M53.7,40.2l-2.8-1.5l3-1.8c1.7-1,2.6-2.8,2.6-4.7c0-1.9-1.1-3.7-2.8-4.6l-4.1-2.3l4.3-2.7c1.7-1,2.6-2.8,2.6-4.7
	c0-1.9-1.1-3.7-2.8-4.6L34.8,2.7c-1.7-0.9-3.7-0.9-5.4,0L10.3,13.8c-1.7,1-2.7,2.7-2.7,4.7c0,2,1,3.7,2.7,4.7l4.3,2.5l-4.3,2.5
	c-1.7,1-2.7,2.7-2.7,4.7s1,3.7,2.7,4.7l2.9,1.7l-2.9,1.7c-1.7,1-2.7,2.7-2.7,4.7c0,2,1,3.7,2.7,4.7l19.1,11c0.8,0.5,1.8,0.7,2.7,0.7
	c1,0,2-0.3,2.8-0.8l18.9-11.6c1.7-1,2.6-2.8,2.6-4.7C56.4,42.9,55.3,41.2,53.7,40.2z M9.6,18.5c0-1.2,0.6-2.3,1.7-3L30.5,4.5
	C31,4.2,31.6,4,32.2,4c0.6,0,1.1,0.1,1.7,0.4l18.8,10.5c1.1,0.6,1.7,1.7,1.7,2.9c0,1.2-0.6,2.3-1.6,3L33.9,32.5
	c-1.1,0.7-2.4,0.7-3.5,0l-19.1-11C10.2,20.9,9.6,19.8,9.6,18.5z M9.6,32.8c0-1.2,0.6-2.3,1.7-3l5.3-3l12.8,7.4
	c0.8,0.5,1.8,0.7,2.7,0.7c1,0,2-0.3,2.8-0.8l12.7-7.8l5.1,2.9c1.1,0.6,1.7,1.7,1.7,2.9c0,1.2-0.6,2.3-1.6,3L33.9,46.8
	c-1.1,0.7-2.4,0.7-3.5,0l-19.1-11C10.2,35.2,9.6,34.1,9.6,32.8z M52.8,47.8L33.9,59.5c-1.1,0.7-2.4,0.7-3.5,0l-19.1-11
	c-1.1-0.6-1.7-1.7-1.7-3c0-1.2,0.6-2.3,1.7-3l3.9-2.2l14.2,8.2c0.8,0.5,1.8,0.7,2.7,0.7c1,0,2-0.3,2.8-0.8l14-8.6l3.7,2.1
	c1.1,0.6,1.7,1.7,1.7,2.9S53.8,47.2,52.8,47.8z"/>
</svg>
