<?xml version="1.0" encoding="utf-8"?>
<!-- Generator: Adobe Illustrator 22.0.0, SVG Export Plug-In . SVG Version: 6.00 Build 0)  -->
<svg fill="#000000" width="52" height="52" version="1.1" id="lni_lni-notepad" xmlns="http://www.w3.org/2000/svg" xmlns:xlink="http://www.w3.org/1999/xlink" x="0px"
	 y="0px" viewBox="0 0 64 64" style="enable-background:new 0 0 64 64;" xml:space="preserve">
<path d="M51.3,4c-1.3-1.3-2.9-2-4.7-2H20.3C17.9,2,16,3.9,16,6.3v6.3h-4.3c-0.6,0-1,0.4-1,1s0.4,1,1,1H16V31h-4.3c-0.6,0-1,0.4-1,1
	s0.4,1,1,1H16v16.5h-4.3c-0.6,0-1,0.4-1,1s0.4,1,1,1H16v6.3c0,2.4,1.9,4.3,4.3,4.3h26.3c3.7,0,6.7-3,6.7-6.7l0-46.6
	C53.3,6.9,52.6,5.2,51.3,4z M51.2,55.3c0,2.6-2.1,4.7-4.7,4.7H20.3C19,60,18,59,18,57.7v-6.3h6.9c0.6,0,1-0.4,1-1s-0.4-1-1-1H18V33
	h6.9c0.6,0,1-0.4,1-1s-0.4-1-1-1H18V14.5h6.9c0.6,0,1-0.4,1-1s-0.4-1-1-1H18V6.3C18,5,19,4,20.3,4h26.3c1.3,0,2.4,0.5,3.3,1.4
	c0.9,0.9,1.4,2.1,1.4,3.3L51.2,55.3z"/>
</svg>
