<?xml version="1.0" encoding="utf-8"?>
<!-- Generator: Adobe Illustrator 22.0.1, SVG Export Plug-In . SVG Version: 6.00 Build 0)  -->
<svg fill="#000000" width="52" height="52" version="1.1" id="lni_lni-page" xmlns="http://www.w3.org/2000/svg" xmlns:xlink="http://www.w3.org/1999/xlink" x="0px"
	 y="0px" viewBox="0 0 64 64" style="enable-background:new 0 0 64 64;" xml:space="preserve">
<g>
	<path d="M51.6,2H12.4c-2.8,0-5,2.2-5,5v50c0,2.8,2.2,5,5,5h39.2c2.8,0,5-2.2,5-5V7C56.6,4.2,54.3,2,51.6,2z M54.6,57
		c0,1.7-1.3,3-3,3H12.4c-1.7,0-3-1.3-3-3V7c0-1.7,1.3-3,3-3h39.2c1.7,0,3,1.3,3,3V57z"/>
	<path d="M46,9.8H34.6c-1.1,0-2,0.9-2,2v13.8c0,1.1,0.9,2,2,2H46c1.1,0,2-0.9,2-2V11.8C48,10.7,47.1,9.8,46,9.8z M34.6,25.6V11.8H46
		l0,13.8H34.6z"/>
	<path d="M17.2,13.6h7.6c0.6,0,1-0.4,1-1s-0.4-1-1-1h-7.6c-0.6,0-1,0.4-1,1S16.6,13.6,17.2,13.6z"/>
	<path d="M17.2,26.7h7.6c0.6,0,1-0.4,1-1s-0.4-1-1-1h-7.6c-0.6,0-1,0.4-1,1S16.6,26.7,17.2,26.7z"/>
	<path d="M47,37.9H17.2c-0.6,0-1,0.4-1,1s0.4,1,1,1H47c0.6,0,1-0.4,1-1S47.5,37.9,47,37.9z"/>
	<path d="M47,51.1H17.2c-0.6,0-1,0.4-1,1s0.4,1,1,1H47c0.6,0,1-0.4,1-1S47.5,51.1,47,51.1z"/>
</g>
</svg>
