<?xml version="1.0" encoding="utf-8"?>
<!-- Generator: Adobe Illustrator 22.0.1, SVG Export Plug-In . SVG Version: 6.00 Build 0)  -->
<svg fill="#000000" width="52" height="52" version="1.1" id="lni_lni-paint-roller-alt-2" xmlns="http://www.w3.org/2000/svg" xmlns:xlink="http://www.w3.org/1999/xlink"
	 x="0px" y="0px" viewBox="0 0 64 64" style="enable-background:new 0 0 64 64;" xml:space="preserve">
<path d="M57,14.4h-3.5V7.4c0-2.2-1.8-4-4-4h-36c-2.2,0-4,1.8-4,4v6.5H4.2v-3.2c0-0.6-0.4-1-1-1s-1,0.4-1,1v8.2c0,0.6,0.4,1,1,1
	s1-0.4,1-1v-3h5.2v6.5c0,2.2,1.8,4,4,4h36c2.2,0,4-1.8,4-4v-6H57c1.7,0,3,1.4,3,3V29c0,1.3-0.8,2.4-1.9,2.8L29.9,42.9h-0.9
	c-2.3,0-4.3,1.9-4.3,4.3v9.2c0,2.3,1.9,4.3,4.3,4.3h2.3c2.3,0,4.3-1.9,4.3-4.3v-9.2c0-1.5-0.8-2.8-1.9-3.5l25.2-9.9
	c1.9-0.8,3.2-2.6,3.2-4.7v-9.5C62,16.7,59.7,14.4,57,14.4z M51.5,22.4c0,1.1-0.9,2-2,2h-36c-1.1,0-2-0.9-2-2v-15c0-1.1,0.9-2,2-2h36
	c1.1,0,2,0.9,2,2V22.4z M33.5,56.4c0,1.2-1,2.3-2.3,2.3h-2.3c-1.2,0-2.3-1-2.3-2.3v-9.2c0-1.2,1-2.3,2.3-2.3h2.3
	c1.2,0,2.3,1,2.3,2.3V56.4z"/>
</svg>
