<?xml version="1.0" encoding="utf-8"?>
<!-- Generator: Adobe Illustrator 22.0.0, SVG Export Plug-In . SVG Version: 6.00 Build 0)  -->
<svg fill="#000000" width="52" height="52" version="1.1" id="lni_lni-pause" xmlns="http://www.w3.org/2000/svg" xmlns:xlink="http://www.w3.org/1999/xlink" x="0px"
	 y="0px" viewBox="0 0 64 64" style="enable-background:new 0 0 64 64;" xml:space="preserve">
<g>
	<path d="M17.5,7.3H7c-2.8,0-5,2.2-5,5v39.5c0,2.8,2.2,5,5,5h10.5c2.8,0,5-2.2,5-5V12.3C22.5,9.5,20.2,7.3,17.5,7.3z M20.5,51.7
		c0,1.7-1.3,3-3,3H7c-1.7,0-3-1.3-3-3V12.3c0-1.7,1.3-3,3-3h10.5c1.7,0,3,1.3,3,3V51.7z"/>
	<path d="M57,7.3H46.5c-2.8,0-5,2.2-5,5v39.5c0,2.8,2.2,5,5,5H57c2.8,0,5-2.2,5-5V12.3C62,9.5,59.8,7.3,57,7.3z M60,51.7
		c0,1.7-1.3,3-3,3H46.5c-1.7,0-3-1.3-3-3V12.3c0-1.7,1.3-3,3-3H57c1.7,0,3,1.3,3,3V51.7z"/>
</g>
</svg>
