<?xml version="1.0" encoding="utf-8"?>
<!-- Generator: Adobe Illustrator 22.0.0, SVG Export Plug-In . SVG Version: 6.00 Build 0)  -->
<svg fill="#000000" width="52" height="52" version="1.1" id="lni_lni-pencil" xmlns="http://www.w3.org/2000/svg" xmlns:xlink="http://www.w3.org/1999/xlink" x="0px"
	 y="0px" viewBox="0 0 64 64" style="enable-background:new 0 0 64 64;" xml:space="preserve">
<path d="M61.4,13.3C58,9.8,54.5,6.2,51,2.8c-0.4-0.5-1-0.8-1.6-0.8c-0.6,0-1.1,0.2-1.6,0.6l0,0l-39,38.8c-0.4,0.4-0.8,1-1,1.6
	L2.1,60.4c-0.1,0.4-0.1,0.8,0.1,1.1C2.4,61.7,2.7,62,3.3,62h0.2l17.5-5.9c0.6-0.2,1.1-0.5,1.6-1l38.8-38.8c0.4-0.4,0.6-1,0.6-1.5
	C62,14.3,61.8,13.7,61.4,13.3z M21.1,53.7c-0.2,0.2-0.5,0.4-0.8,0.5L4.5,59.6l5.3-15.9c0.1-0.3,0.3-0.6,0.5-0.8l29.4-29.3l10.9,10.8
	L21.1,53.7z M59.9,15l-8,8L41,12.2L49.2,4l0.1,0c0,0,0.1,0,0.3,0.2c3.6,3.4,7,7,10.4,10.5c0,0,0.1,0.1,0.1,0.1
	C60,14.9,60,14.9,59.9,15z"/>
</svg>
