<?xml version="1.0" encoding="utf-8"?>
<!-- Generator: Adobe Illustrator 22.0.0, SVG Export Plug-In . SVG Version: 6.00 Build 0)  -->
<svg fill="#000000" width="52" height="52" version="1.1" id="lni_lni-play" xmlns="http://www.w3.org/2000/svg" xmlns:xlink="http://www.w3.org/1999/xlink" x="0px"
	 y="0px" viewBox="0 0 64 64" style="enable-background:new 0 0 64 64;" xml:space="preserve">
<path d="M56.8,29.5l-46.4-27c-1-0.6-2.2-0.6-3.2-0.1C6.3,2.9,5.7,3.9,5.7,5v53.9c0,1.1,0.6,2.1,1.6,2.6c0.5,0.3,1,0.4,1.6,0.4
	c0.6,0,1.2-0.2,1.6-0.5l46.4-27c0.9-0.6,1.4-1.5,1.4-2.5C58.3,31,57.8,30,56.8,29.5z M55.8,32.8l-46.4,27c-0.4,0.2-0.8,0.2-1.2,0
	c-0.2-0.1-0.5-0.4-0.5-0.9V5c0-0.5,0.4-0.8,0.5-0.9C8.4,4,8.6,4,8.8,4C9,4,9.2,4.1,9.4,4.2l46.4,27c0.3,0.2,0.5,0.5,0.5,0.8
	C56.3,32.3,56.1,32.6,55.8,32.8z"/>
</svg>
