<?xml version="1.0" encoding="utf-8"?>
<!-- Generator: Adobe Illustrator 22.0.0, SVG Export Plug-In . SVG Version: 6.00 Build 0)  -->
<svg fill="#000000" width="52" height="52" version="1.1" id="lni_lni-question-circle" xmlns="http://www.w3.org/2000/svg" xmlns:xlink="http://www.w3.org/1999/xlink"
	 x="0px" y="0px" viewBox="0 0 64 64" style="enable-background:new 0 0 64 64;" xml:space="preserve">
<g>
	<path d="M32,2C15.5,2,2,15.5,2,32s13.5,30,30,30s30-13.5,30-30S48.5,2,32,2z M32,60C16.6,60,4,47.4,4,32S16.6,4,32,4s28,12.6,28,28
		S47.4,60,32,60z"/>
	<path d="M33.6,12.7c-2.6-0.5-5.3,0.2-7.3,1.9c-2,1.7-3.2,4.2-3.2,6.8c0,1,0.2,2,0.5,3c0.2,0.5,0.8,0.8,1.3,0.6
		c0.5-0.2,0.8-0.8,0.6-1.3c-0.3-0.7-0.4-1.5-0.4-2.3c0-2,0.9-4,2.5-5.3c1.6-1.3,3.6-1.9,5.7-1.5c2.8,0.5,5.1,2.8,5.5,5.5
		c0.6,3.3-1.1,6.4-4.2,7.6C32.4,28.8,31,31,31,33.5v6.4c0,0.6,0.4,1,1,1s1-0.4,1-1v-6.4c0-1.7,1-3.2,2.4-3.8
		c3.9-1.6,6.1-5.7,5.4-9.8C40.1,16.3,37.2,13.3,33.6,12.7z"/>
	<path d="M32.1,47.6h-0.3c-0.6,0-1,0.4-1,1s0.4,1,1,1h0.3c0.6,0,1-0.4,1-1S32.7,47.6,32.1,47.6z"/>
</g>
</svg>
