<?xml version="1.0" encoding="utf-8"?>
<!-- Generator: Adobe Illustrator 22.0.0, SVG Export Plug-In . SVG Version: 6.00 Build 0)  -->
<svg fill="#000000" width="52" height="52" version="1.1" id="lni_lni-radio-button" xmlns="http://www.w3.org/2000/svg" xmlns:xlink="http://www.w3.org/1999/xlink"
	 x="0px" y="0px" viewBox="0 0 64 64" style="enable-background:new 0 0 64 64;" xml:space="preserve">
<g>
	<path d="M8.3,4.6C4.8,4.6,2,7.5,2,10.9c0,3.5,2.8,6.3,6.3,6.3c3.5,0,6.3-2.8,6.3-6.3C14.5,7.5,11.7,4.6,8.3,4.6z M8.3,15.2
		c-2.4,0-4.3-1.9-4.3-4.3s1.9-4.3,4.3-4.3s4.3,1.9,4.3,4.3S10.6,15.2,8.3,15.2z"/>
	<path d="M8.3,25.7C4.8,25.7,2,28.5,2,32s2.8,6.3,6.3,6.3c3.5,0,6.3-2.8,6.3-6.3S11.7,25.7,8.3,25.7z M8.3,36.3
		C5.9,36.3,4,34.4,4,32c0-2.4,1.9-4.3,4.3-4.3s4.3,1.9,4.3,4.3C12.5,34.4,10.6,36.3,8.3,36.3z"/>
	<path d="M8.3,46.8c-3.5,0-6.3,2.8-6.3,6.3s2.8,6.3,6.3,6.3c3.5,0,6.3-2.8,6.3-6.3S11.7,46.8,8.3,46.8z M8.3,57.4
		c-2.4,0-4.3-1.9-4.3-4.3s1.9-4.3,4.3-4.3s4.3,1.9,4.3,4.3S10.6,57.4,8.3,57.4z"/>
	<path d="M24.1,11.9H61c0.6,0,1-0.4,1-1s-0.4-1-1-1H24.1c-0.6,0-1,0.4-1,1S23.5,11.9,24.1,11.9z"/>
	<path d="M61,31H24.1c-0.6,0-1,0.4-1,1s0.4,1,1,1H61c0.6,0,1-0.4,1-1S61.6,31,61,31z"/>
	<path d="M61,52.1H24.1c-0.6,0-1,0.4-1,1s0.4,1,1,1H61c0.6,0,1-0.4,1-1S61.6,52.1,61,52.1z"/>
</g>
</svg>
