<?xml version="1.0" encoding="utf-8"?>
<!-- Generator: Adobe Illustrator 22.0.1, SVG Export Plug-In . SVG Version: 6.00 Build 0)  -->
<svg fill="#000000" width="52" height="52" version="1.1" id="lni_lni-reload" xmlns="http://www.w3.org/2000/svg" xmlns:xlink="http://www.w3.org/1999/xlink" x="0px"
	 y="0px" viewBox="0 0 64 64" style="enable-background:new 0 0 64 64;" xml:space="preserve">
<g>
	<path d="M8.4,27.8c0.2,0,0.4,0,0.6-0.1l11.1-3.9c0.5-0.2,0.8-0.8,0.6-1.3c-0.2-0.5-0.8-0.8-1.3-0.6l-9.3,3.3
		C12.9,14.7,22.5,7.5,33.5,7.5c11.1,0,20.7,7.4,23.4,17.9c0.1,0.5,0.7,0.9,1.2,0.7c0.5-0.1,0.9-0.7,0.7-1.2
		c-3-11.5-13.4-19.5-25.4-19.5c-11.9,0-22.2,7.8-25.2,19.1l-3.3-9.4c-0.2-0.5-0.8-0.8-1.3-0.6c-0.5,0.2-0.8,0.8-0.6,1.3l3.8,10.9
		C7.1,27.4,7.8,27.8,8.4,27.8z"/>
	<path d="M60.9,50.2l-4.1-10.7c-0.2-0.4-0.5-0.8-0.9-0.9c-0.4-0.2-0.8-0.2-1.3,0l-11,4.2c-0.5,0.2-0.8,0.8-0.6,1.3
		c0.2,0.5,0.8,0.8,1.3,0.6l9.6-3.6c-3.4,9.4-12.4,15.6-22.6,15.6c-10.4,0-19.6-6.5-22.9-16.2c-0.2-0.5-0.7-0.8-1.3-0.6
		c-0.5,0.2-0.8,0.7-0.6,1.3C10.1,51.5,20,58.5,31.3,58.5c10.9,0,20.5-6.6,24.3-16.5l3.4,8.9c0.2,0.4,0.5,0.6,0.9,0.6
		c0.1,0,0.2,0,0.4-0.1C60.9,51.3,61.1,50.7,60.9,50.2z"/>
</g>
</svg>
