<?xml version="1.0" encoding="utf-8"?>
<!-- Generator: Adobe Illustrator 22.0.1, SVG Export Plug-In . SVG Version: 6.00 Build 0)  -->
<svg fill="#000000" width="52" height="52" version="1.1" id="lni_lni-round-box-check" xmlns="http://www.w3.org/2000/svg" xmlns:xlink="http://www.w3.org/1999/xlink"
	 x="0px" y="0px" viewBox="0 0 64 64" style="enable-background:new 0 0 64 64;" xml:space="preserve">
<g>
	<path d="M57,2H7C4.2,2,2,4.2,2,7v50c0,2.8,2.2,5,5,5h50c2.8,0,5-2.2,5-5V7C62,4.2,59.8,2,57,2z M60,57c0,1.7-1.3,3-3,3H7
		c-1.7,0-3-1.3-3-3V7c0-1.7,1.3-3,3-3h50c1.7,0,3,1.3,3,3V57z"/>
	<path d="M48.4,19.7L28.1,39.9c-1.3,1.3-3.3,1.3-4.6,0l-8-8c-0.4-0.4-1-0.4-1.4,0s-0.4,1,0,1.4l8,8c1,1,2.4,1.5,3.7,1.5
		c1.3,0,2.7-0.5,3.7-1.5l20.3-20.3c0.4-0.4,0.4-1,0-1.4S48.8,19.3,48.4,19.7z"/>
</g>
</svg>
