<svg fill="#1C2033" width="52" height="52" viewBox="0 0 64 64" xmlns="http://www.w3.org/2000/svg"><path d="M58.7016 11.8L48.7016 2.6L48.6016 2.5C48.1016 2.2 47.6016 2 47.0016 2H43.5016H15.2016H11.2016C7.60156 2 4.60156 4.9 4.60156 8.6V55.4C4.60156 59 7.50156 62 11.2016 62H17.8016H46.2016H52.8016C56.4016 62 59.4016 59.1 59.4016 55.4V13.5C59.4016 12.9 59.1016 12.3 58.7016 11.8ZM41.6016 4V12.2C41.6016 12.4 41.5016 12.5 41.3016 12.5H17.5016C17.3016 12.5 17.2016 12.4 17.2016 12.2V4H41.6016ZM19.8016 60V38.6C19.8016 38.4 19.9016 38.3 20.1016 38.3H43.9016C44.1016 38.3 44.2016 38.4 44.2016 38.6V60H19.8016ZM57.4016 55.4C57.4016 57.9 55.3016 60 52.8016 60H46.2016V38.6C46.2016 37.3 45.2016 36.3 43.9016 36.3H20.1016C18.8016 36.3 17.8016 37.3 17.8016 38.6V60H11.2016C8.70156 60 6.60156 57.9 6.60156 55.4V8.6C6.60156 6.1 8.70156 4 11.2016 4H15.2016V12.2C15.2016 13.5 16.2016 14.5 17.5016 14.5H41.3016C42.6016 14.5 43.6016 13.5 43.6016 12.2V4H47.0016C47.1016 4 47.2016 4 47.3016 4.1L57.2016 13.2C57.3016 13.3 57.3016 13.3 57.3016 13.5V55.4H57.4016Z"/><path d="M37.3031 44.2002H26.7031C26.1031 44.2002 25.7031 44.6002 25.7031 45.2002C25.7031 45.8002 26.1031 46.2002 26.7031 46.2002H37.3031C37.9031 46.2002 38.3031 45.8002 38.3031 45.2002C38.3031 44.6002 37.8031 44.2002 37.3031 44.2002Z"/><path d="M37.3031 52.0996H26.7031C26.1031 52.0996 25.7031 52.4996 25.7031 53.0996C25.7031 53.6996 26.1031 54.0996 26.7031 54.0996H37.3031C37.9031 54.0996 38.3031 53.6996 38.3031 53.0996C38.3031 52.4996 37.8031 52.0996 37.3031 52.0996Z"/></svg>