<svg fill="#fffffff" width="52" height="52" viewBox="0 0 64 64" xmlns="http://www.w3.org/2000/svg"><path d="M16.0996 62.2008C15.1996 62.2008 14.2996 61.9008 13.5996 61.4008C12.1996 60.4008 11.3996 58.6008 11.6996 56.9008L14.2996 40.8008L3.09959 29.3008C1.89959 28.1008 1.49959 26.3008 1.99959 24.6008C2.49959 23.0008 3.89959 21.8008 5.49959 21.6008L20.9996 19.1008L27.9996 4.40078C28.7996 2.80078 30.2996 1.80078 31.9996 1.80078C33.6996 1.80078 35.2996 2.80078 35.9996 4.40078L42.9996 19.0008L58.3996 21.4008C59.9996 21.7008 61.3996 22.8008 61.8996 24.4008C62.4996 26.1008 61.9996 27.9008 60.7996 29.1008L49.6996 40.7008L52.2996 56.9008C52.5996 58.7008 51.8996 60.4008 50.3996 61.4008C48.9996 62.4008 47.2996 62.5008 45.7996 61.7008L31.9996 54.2008L18.1996 61.7008C17.5996 62.1008 16.7996 62.2008 16.0996 62.2008ZM6.29959 26.0008C6.29959 26.0008 6.29959 26.1008 6.29959 26.2008L17.9996 38.2008C18.6996 38.9008 18.9996 40.0008 18.8996 41.0008L16.1996 57.7008C16.1996 57.7008 16.1996 57.7008 16.1996 57.8008L30.5996 50.0008C31.4996 49.5008 32.5996 49.5008 33.5996 50.0008L47.9996 57.8008C47.9996 57.8008 47.9996 57.8008 47.9996 57.7008L45.2996 40.9008C45.0996 39.9008 45.4996 38.9008 46.1996 38.1008L57.8996 26.1008C57.9996 26.0008 57.8996 25.9008 57.8996 25.9008L41.7996 23.4008C40.7996 23.2008 39.8996 22.6008 39.4996 21.6008L31.9996 6.40078L24.7996 21.7008C24.3996 22.6008 23.4996 23.3008 22.4996 23.5008L6.29959 26.0008Z"/></svg>