<?xml version="1.0" encoding="utf-8"?>
<!-- Generator: Adobe Illustrator 22.0.0, SVG Export Plug-In . SVG Version: 6.00 Build 0)  -->
<svg fill="#000000" width="52" height="52" version="1.1" id="lni_lni-star" xmlns="http://www.w3.org/2000/svg" xmlns:xlink="http://www.w3.org/1999/xlink" x="0px"
	 y="0px" viewBox="0 0 64 64" style="enable-background:new 0 0 64 64;" xml:space="preserve">
<path d="M61.8,24.6c-0.4-1.2-1.4-2.1-2.6-2.3l-16.7-2.6L35,3.9C34.4,2.7,33.3,2,32,2c0,0,0,0,0,0c-1.3,0-2.4,0.7-2.9,1.9l-7.5,15.9
	L4.8,22.5c-1.2,0.2-2.2,1.1-2.6,2.3C1.8,26,2.1,27.4,3,28.3l12.1,12.4L12.3,58c-0.2,1.3,0.3,2.6,1.4,3.4c0.6,0.4,1.2,0.6,1.8,0.6
	c0.5,0,1.1-0.1,1.5-0.4L32,53.4l14.9,8.1c1.1,0.6,2.4,0.5,3.4-0.2c1.1-0.8,1.6-2.1,1.4-3.4l-2.8-17.4L61,28.1
	C61.9,27.2,62.2,25.8,61.8,24.6z M59.5,26.7L47.5,39.1c-0.4,0.4-0.6,1.1-0.5,1.7l2.8,17.4c0.1,0.7-0.2,1.2-0.6,1.4
	c-0.2,0.1-0.7,0.4-1.3,0.1l-15-8.1c-0.6-0.3-1.2-0.3-1.8,0l-15,8.2c-0.6,0.3-1.1,0.1-1.3-0.1c-0.3-0.2-0.7-0.8-0.6-1.4L17.1,41
	c0.1-0.6-0.1-1.3-0.5-1.7L4.5,26.9h0C4,26.4,4,25.8,4.1,25.4c0.2-0.5,0.5-0.8,1-0.9l16.8-2.7c0.6-0.1,1.2-0.5,1.4-1.1l7.5-15.9
	C31.1,4.3,31.5,4,32,4c0,0,0,0,0,0c0.5,0,0.9,0.3,1.1,0.8l7.5,15.9c0.3,0.6,0.8,1,1.4,1.1l16.7,2.6c0.5,0.1,0.9,0.4,1,0.9
	C60,25.6,60,26.3,59.5,26.7z"/>
</svg>
