<?xml version="1.0" encoding="utf-8"?>
<!-- Generator: Adobe Illustrator 22.0.1, SVG Export Plug-In . SVG Version: 6.00 Build 0)  -->
<svg fill="#000000" width="52" height="52" version="1.1" id="lni_lni-stopwatch" xmlns="http://www.w3.org/2000/svg" xmlns:xlink="http://www.w3.org/1999/xlink" x="0px"
	 y="0px" viewBox="0 0 64 64" style="enable-background:new 0 0 64 64;" xml:space="preserve">
<g>
	<path d="M33,12V4h5.3c0.6,0,1-0.4,1-1s-0.4-1-1-1H25.7c-0.6,0-1,0.4-1,1s0.4,1,1,1H31v8C17.7,12.5,7,23.5,7,37
		c0,13.8,11.2,25,25,25c13.8,0,25-11.2,25-25C57,23.5,46.3,12.5,33,12z M32,60C19.3,60,9,49.7,9,37c0-12.7,10.3-23,23-23
		s23,10.3,23,23C55,49.7,44.7,60,32,60z"/>
	<path d="M33,31.8v-9.1c0-0.6-0.4-1-1-1c-0.6,0-1,0.4-1,1v9.1c-2.5,0.5-4.4,2.7-4.4,5.3c0,3,2.4,5.4,5.4,5.4s5.4-2.4,5.4-5.4
		C37.4,34.5,35.5,32.3,33,31.8z M32,40.5c-1.9,0-3.4-1.5-3.4-3.4s1.5-3.4,3.4-3.4c1.9,0,3.4,1.5,3.4,3.4S33.9,40.5,32,40.5z"/>
</g>
</svg>
