<?xml version="1.0" encoding="utf-8"?>
<!-- Generator: Adobe Illustrator 22.0.1, SVG Export Plug-In . SVG Version: 6.00 Build 0)  -->
<svg fill="#000000" width="52" height="52" version="1.1" id="lni_lni-text-alt" xmlns="http://www.w3.org/2000/svg" xmlns:xlink="http://www.w3.org/1999/xlink" x="0px"
	 y="0px" viewBox="0 0 64 64" style="enable-background:new 0 0 64 64;" xml:space="preserve">
<path d="M52.8,2H11.2C8.2,2,5.9,4.4,5.9,7.3v5.7c0,0.6,0.4,1,1,1s1-0.4,1-1V7.3C7.9,5.5,9.3,4,11.2,4h14.3v56h-7.3c-0.6,0-1,0.4-1,1
	s0.4,1,1,1h27.7c0.6,0,1-0.4,1-1s-0.4-1-1-1h-7.3V4h14.3c1.8,0,3.3,1.5,3.3,3.3v5.7c0,0.6,0.4,1,1,1s1-0.4,1-1V7.3
	C58.1,4.4,55.8,2,52.8,2z M36.6,60h-9.1V4h9.1V60z"/>
</svg>
