<?xml version="1.0" encoding="utf-8"?>
<!-- Generator: Adobe Illustrator 22.0.1, SVG Export Plug-In . SVG Version: 6.00 Build 0)  -->
<svg fill="#000000" width="52" height="52" version="1.1" id="lni_lni-text" xmlns="http://www.w3.org/2000/svg" xmlns:xlink="http://www.w3.org/1999/xlink" x="0px"
	 y="0px" viewBox="0 0 64 64" style="enable-background:new 0 0 64 64;" xml:space="preserve">
<path d="M55.3,2H8.7C5,2,2,5,2,8.7v2.5c0,0.6,0.4,1,1,1s1-0.4,1-1V8.7C4,6.1,6.1,4,8.7,4H31v56H19.2c-0.6,0-1,0.4-1,1s0.4,1,1,1
	h25.6c0.6,0,1-0.4,1-1s-0.4-1-1-1H33V4h22.3C57.9,4,60,6.1,60,8.7v2.5c0,0.6,0.4,1,1,1s1-0.4,1-1V8.7C62,5,59,2,55.3,2z"/>
</svg>
