<?xml version="1.0" encoding="utf-8"?>
<!-- Generator: Adobe Illustrator 22.0.1, SVG Export Plug-In . SVG Version: 6.00 Build 0)  -->
<svg fill="#000000" width="52" height="52" version="1.1" id="lni_lni-trash-can-alt-2" xmlns="http://www.w3.org/2000/svg" xmlns:xlink="http://www.w3.org/1999/xlink"
	 x="0px" y="0px" viewBox="0 0 64 64" style="enable-background:new 0 0 64 64;" xml:space="preserve">
<g>
	<path d="M49.6,9.3h-9.4V6.1c0-2.3-1.8-4.1-4.1-4.1h-8.2c-2.3,0-4.1,1.8-4.1,4.1v3.2h-9.4c-2.2,0-4,1.8-4,4v3.3
		c0,1.9,1.4,3.6,3.2,3.9l1.7,35.1c0.2,3.6,3.1,6.3,6.7,6.3h20.1c3.6,0,6.5-2.8,6.7-6.3l1.7-35.1c1.8-0.4,3.2-2,3.2-3.9v-3.3
		C53.6,11.1,51.8,9.3,49.6,9.3z M25.8,6.1c0-1.2,0.9-2.1,2.1-2.1h8.2c1.2,0,2.1,0.9,2.1,2.1v3.2H25.8V6.1z M42.1,60H21.9
		c-2.5,0-4.5-2-4.7-4.4l-1.7-35h32.8l-1.7,35C46.6,58,44.6,60,42.1,60z M51.6,16.6c0,1.1-0.9,2-2,2H14.4c-1.1,0-2-0.9-2-2v-3.3
		c0-1.1,0.9-2,2-2h10.4h14.4h10.4c1.1,0,2,0.9,2,2V16.6z"/>
	<path d="M32,33.8c-0.6,0-1,0.4-1,1V48c0,0.6,0.4,1,1,1s1-0.4,1-1V34.8C33,34.2,32.6,33.8,32,33.8z"/>
	<path d="M40.1,35.8c-0.5,0-1,0.4-1.1,0.9l-0.6,9.1c0,0.6,0.4,1,0.9,1.1c0,0,0,0,0.1,0c0.5,0,1-0.4,1-0.9l0.6-9.1
		C41.1,36.3,40.7,35.8,40.1,35.8z"/>
	<path d="M23.7,35.8c-0.6,0-1,0.5-0.9,1.1l0.7,9.1c0,0.5,0.5,0.9,1,0.9c0,0,0.1,0,0.1,0c0.6,0,1-0.5,0.9-1.1l-0.7-9.1
		C24.8,36.2,24.3,35.8,23.7,35.8z"/>
</g>
</svg>
