<?xml version="1.0" encoding="utf-8"?>
<!-- Generator: Adobe Illustrator 22.0.1, SVG Export Plug-In . SVG Version: 6.00 Build 0)  -->
<svg fill="#000000" width="52" height="52" version="1.1" id="lni_lni-triangle-9" xmlns="http://www.w3.org/2000/svg" xmlns:xlink="http://www.w3.org/1999/xlink" x="0px"
	 y="0px" viewBox="0 0 64 64" style="enable-background:new 0 0 64 64;" xml:space="preserve">
<path d="M54.9,51l-15-43.4C38.7,4.2,35.6,2,32,2c-3.6,0-6.7,2.2-7.8,5.6L9.1,51c-0.9,2.6-0.5,5.3,1.1,7.5s4,3.5,6.8,3.5H47
	c2.7,0,5.2-1.3,6.8-3.5C55.4,56.3,55.8,53.6,54.9,51z M52.2,57.4C51,59,49.1,60,47,60H17c-2.1,0-3.9-1-5.1-2.6
	c-1.2-1.7-1.5-3.8-0.8-5.7L26,8.2C27.1,5.1,29.8,4,32,4c2.2,0,4.9,1.1,6,4.2l15,43.4C53.7,53.6,53.4,55.7,52.2,57.4z"/>
</svg>
