<?xml version="1.0" encoding="utf-8"?>
<!-- Generator: Adobe Illustrator 22.0.1, SVG Export Plug-In . SVG Version: 6.00 Build 0)  -->
<svg fill="#000000" width="52" height="52" version="1.1" id="lni_lni-user" xmlns="http://www.w3.org/2000/svg" xmlns:xlink="http://www.w3.org/1999/xlink" x="0px"
	 y="0px" viewBox="0 0 64 64" style="enable-background:new 0 0 64 64;" xml:space="preserve">
<g>
	<path d="M48.8,35c-4.4-5.2-10.4-8.1-16.8-8.1S19.6,29.7,15.2,35c-4.4,5.2-6.8,12.4-7,20.2c0,0.4,0.2,0.7,0.6,0.9
		C11.5,57.5,21.4,62,32,62c11.5,0,20.7-4.5,23.3-5.9c0.3-0.2,0.5-0.5,0.5-0.9C55.7,47.3,53.2,40.2,48.8,35z M32,60
		c-9.5,0-18.5-3.8-21.8-5.4c0.2-7.1,2.5-13.6,6.5-18.3c4-4.8,9.4-7.4,15.3-7.4c5.8,0,11.3,2.6,15.3,7.4c4,4.7,6.3,11.2,6.5,18.4
		C50.7,56.2,42.3,60,32,60z"/>
	<path d="M32,26.8c6.8,0,12.4-5.6,12.4-12.4S38.8,2,32,2S19.6,7.6,19.6,14.4S25.2,26.8,32,26.8z M32,4c5.7,0,10.4,4.7,10.4,10.4
		c0,5.7-4.7,10.4-10.4,10.4c-5.7,0-10.4-4.7-10.4-10.4C21.6,8.7,26.3,4,32,4z"/>
</g>
</svg>
