<?xml version="1.0" encoding="utf-8"?>
<!-- Generator: Adobe Illustrator 22.0.1, SVG Export Plug-In . SVG Version: 6.00 Build 0)  -->
<svg fill="#000000" width="52" height="52" version="1.1" id="lni_lni-users-2" xmlns="http://www.w3.org/2000/svg" xmlns:xlink="http://www.w3.org/1999/xlink" x="0px"
	 y="0px" viewBox="0 0 64 64" style="enable-background:new 0 0 64 64;" xml:space="preserve">
<g>
	<path d="M20.5,27.8c5.7,0,10.4-4.5,10.4-10s-4.6-10-10.4-10s-10.4,4.5-10.4,10S14.8,27.8,20.5,27.8z M20.5,9.8c4.6,0,8.4,3.6,8.4,8
		s-3.8,8-8.4,8s-8.4-3.6-8.4-8S15.9,9.8,20.5,9.8z"/>
	<path d="M46.5,32.7c4.8,0,8.7-3.8,8.7-8.5c0-4.7-3.9-8.5-8.7-8.5s-8.7,3.8-8.7,8.5C37.8,28.9,41.7,32.7,46.5,32.7z M46.5,17.8
		c3.7,0,6.7,2.9,6.7,6.5s-3,6.5-6.7,6.5s-6.7-2.9-6.7-6.5S42.8,17.8,46.5,17.8z"/>
	<path d="M47,36.5h-0.9c-3.2,0-6.4,1-8.9,2.9c-2.3-4-6.6-6.7-11.6-6.7H15.4C8,32.8,2,38.8,2,46.2v7.9c0,1.2,1,2.1,2.1,2.1h29.2h3.6
		h22.9c1.2,0,2.3-1,2.3-2.3v-2.5C62,43.2,55.3,36.5,47,36.5z M33.3,54.3H4.1c-0.1,0-0.1-0.1-0.1-0.1v-7.9c0-6.3,5.1-11.4,11.4-11.4
		h10.1c6.3,0,11.4,5.1,11.4,11.4v7.9c0,0.1-0.1,0.1-0.1,0.1H33.3z M60,54c0,0.1-0.1,0.3-0.3,0.3H39c0,0,0-0.1,0-0.1v-7.9
		c0-1.7-0.3-3.4-1-4.9c2.3-1.8,5.1-2.8,8-2.8H47c7.2,0,13,5.8,13,13V54z"/>
</g>
</svg>
