<svg fill="#1C2033" width="52" height="52" viewBox="0 0 24 24" xmlns="http://www.w3.org/2000/svg"><path d="M2 14.8C2 13.8059 2.7835 13 3.75 13H14.25C15.2165 13 16 13.8059 16 14.8C16 18.7764 12.866 22 9 22C5.13401 22 2 18.7764 2 14.8Z"/><path d="M12.5 7.6C12.5 9.58823 10.933 11.2 9 11.2C7.067 11.2 5.5 9.58823 5.5 7.6C5.5 5.61177 7.067 4 9 4C10.933 4 12.5 5.61177 12.5 7.6Z"/><path d="M15 9.2C16.933 9.2 18.5 7.58822 18.5 5.6C18.5 3.61177 16.933 2 15 2C13.7896 2 12.7228 2.63194 12.0943 3.59254C13.261 4.53321 14 5.99048 14 7.6C14 8.0791 13.9345 8.54472 13.8118 8.98723C14.1828 9.12494 14.5829 9.2 15 9.2Z"/><path d="M15.8525 19.9471C16.8901 18.5007 17.5 16.7175 17.5 14.8C17.5 13.0176 16.0845 11.5 14.25 11.5H12.2231C12.4023 11.3454 12.5705 11.1783 12.7265 11H20.25C21.2165 11 22 11.8059 22 12.8C22 16.4796 19.3164 19.5145 15.8525 19.9471Z"/></svg>