<?xml version="1.0" encoding="utf-8"?><!-- Generator: Adobe Illustrator 25.2.1, SVG Export Plug-In . SVG Version: 6.00 Build 0)  --><svg fill="#1C2033" width="52" height="52" version="1.1" id="lni_lni-vector-alt" xmlns="http://www.w3.org/2000/svg" xmlns:xlink="http://www.w3.org/1999/xlink" x="0px"	 y="0px" viewBox="0 0 64 64" style="enable-background:new 0 0 64 64;" xml:space="preserve"><path d="M57.9,48.4c-0.2-2.9-1.1-8.8-5.4-13.4c-3.3-3.5-7.9-5.4-13.6-5.7v-1.1c0-1.8-1.5-3.2-3.2-3.2h-7.5c-1.8,0-3.2,1.5-3.2,3.2	v1.4c-4.2-0.4-7.5-1.8-9.8-4.2c-3-3.1-3.9-7.3-4.1-9.8c2.6-0.5,4.7-2.8,4.7-5.6V7.5c0-3.2-2.6-5.7-5.7-5.7H7.5	c-3.2,0-5.7,2.6-5.7,5.7V10c0,2.9,2.1,5.2,4.8,5.7c0.3,3,1.3,8.5,5.3,12.8c3.2,3.4,7.6,5.3,13.1,5.7v1.6c0,1.8,1.5,3.2,3.2,3.2h7.5	c1.8,0,3.2-1.5,3.2-3.2v-1.9c4.4,0.3,7.8,1.7,10.3,4.3c3.2,3.3,4,7.8,4.1,10.2c-2.9,0.3-5.2,2.7-5.2,5.7v2.5c0,3.2,2.6,5.7,5.7,5.7	h2.5c3.2,0,5.7-2.6,5.7-5.7V54C62.2,51.3,60.4,49.1,57.9,48.4z M6.2,7.5c0-0.7,0.6-1.2,1.2-1.2H10c0.7,0,1.2,0.6,1.2,1.2V10	c0,0.7-0.6,1.2-1.2,1.2H7.5c-0.7,0-1.2-0.6-1.2-1.2V7.5z M34.5,34.5h-5v-5h5V34.5z M57.8,56.5c0,0.7-0.6,1.2-1.2,1.2H54	c-0.7,0-1.2-0.6-1.2-1.2V54c0-0.7,0.6-1.2,1.2-1.2h2.5c0.7,0,1.2,0.6,1.2,1.2V56.5z"/></svg>