<?xml version="1.0" encoding="utf-8"?><!-- Generator: Adobe Illustrator 22.0.0, SVG Export Plug-In . SVG Version: 6.00 Build 0)  --><svg fill="#1C2033" width="52" height="52" version="1.1" id="lni_lni-video-alt-1" xmlns="http://www.w3.org/2000/svg" xmlns:xlink="http://www.w3.org/1999/xlink"	 x="0px" y="0px" viewBox="0 0 64 64" style="enable-background:new 0 0 64 64;" xml:space="preserve"><g>	<path d="M54,1.8H10c-4.5,0-8.3,3.7-8.3,8.3v44c0,4.5,3.7,8.3,8.3,8.3h44c4.5,0,8.3-3.7,8.3-8.3V10C62.3,5.5,58.5,1.8,54,1.8z		 M15.5,29.8H6.3V20h9.3V29.8z M6.3,34.3h9.3V44H6.3V34.3z M20,6.3h24v51.5H20V6.3z M57.8,29.8h-9.3V20h9.3V29.8z M48.5,34.3h9.3V44		h-9.3V34.3z M57.8,10v5.5h-9.3V6.3H54C56.1,6.3,57.8,7.9,57.8,10z M10,6.3h5.5v9.3H6.3V10C6.3,7.9,7.9,6.3,10,6.3z M6.3,54v-5.5		h9.3v9.3H10C7.9,57.8,6.3,56.1,6.3,54z M54,57.8h-5.5v-9.3h9.3V54C57.8,56.1,56.1,57.8,54,57.8z"/>	<path d="M39.8,28.9l-9.2-5.6c-1.1-0.7-2.5-0.7-3.6-0.1c-1.1,0.6-1.8,1.8-1.8,3.1v11.1c0,1.3,0.7,2.5,1.8,3.1		c0.5,0.3,1.2,0.5,1.8,0.5c0.7,0,1.3-0.2,1.9-0.5l9.2-5.6c1.1-0.7,1.7-1.8,1.7-3.1S40.9,29.6,39.8,28.9z M29.7,36v-8l6.6,4L29.7,36z		"/></g></svg>