<?xml version="1.0" encoding="utf-8"?>
<!-- Generator: Adobe Illustrator 22.0.1, SVG Export Plug-In . SVG Version: 6.00 Build 0)  -->
<svg fill="#000000" width="52" height="52" version="1.1" id="lni_lni-video-camera-alt-2" xmlns="http://www.w3.org/2000/svg" xmlns:xlink="http://www.w3.org/1999/xlink"
	 x="0px" y="0px" viewBox="0 0 64 64" style="enable-background:new 0 0 64 64;" xml:space="preserve">
<path d="M61,31.5c-0.6-0.4-1.5-0.6-2.2-0.3l-11.3,4.1v-4.9c0-2.2-1.8-4-4-4H39c2.4-1.8,3.9-4.6,3.9-7.8c0-5.4-4.4-9.8-9.8-9.8
	c-5.4,0-9.7,4.3-9.8,9.6c-0.1-5.3-4.5-9.6-9.8-9.6c-5.4,0-9.8,4.4-9.8,9.8c0,3.2,1.5,6,3.9,7.8H6c-2.2,0-4,1.8-4,4v20.9
	c0,2.2,1.8,4,4,4h37.5c2.2,0,4-1.8,4-4v-4.9l11.3,4.1c0.3,0.1,0.5,0.1,0.8,0.1c0.5,0,1-0.1,1.4-0.4c0.6-0.4,1-1.2,1-2V33.5
	C62,32.7,61.6,32,61,31.5z M33.1,10.7c4.3,0,7.8,3.5,7.8,7.8s-3.5,7.8-7.8,7.8s-7.8-3.5-7.8-7.8S28.8,10.7,33.1,10.7z M27.2,26.4
	h-7.8c2.3-1.8,3.8-4.5,3.9-7.6C23.4,21.9,24.9,24.6,27.2,26.4z M5.6,18.6c0-4.3,3.5-7.8,7.8-7.8c4.3,0,7.8,3.5,7.8,7.8
	s-3.5,7.8-7.8,7.8C9.1,26.4,5.6,22.9,5.6,18.6z M43.5,53.3H6c-1.1,0-2-0.9-2-2V30.4c0-1.1,0.9-2,2-2h37.5c1.1,0,2,0.9,2,2v6.2
	c0,0,0,0,0,0V45c0,0,0,0,0,0v6.2C45.5,52.4,44.6,53.3,43.5,53.3z M60,48.2c0,0.2-0.1,0.3-0.2,0.3c-0.1,0-0.2,0.1-0.4,0l-11.9-4.3
	v-6.9l11.9-4.3c0.2-0.1,0.3,0,0.4,0c0.1,0,0.2,0.1,0.2,0.3V48.2z"/>
</svg>
