<svg fill="#1C2033" width="52" height="52" viewBox="0 0 64 64" xmlns="http://www.w3.org/2000/svg"><path d="M62.2008 5.90019C62.2008 4.20019 61.3008 2.80019 59.8008 2.10019C58.3008 1.40019 56.5008 1.70019 55.3008 2.80019C49.0008 8.20019 40.0008 11.4002 33.6008 12.7002C31.2008 12.7002 12.3008 12.9002 11.5008 12.9002C10.3008 12.9002 9.30078 13.9002 9.30078 15.2002V17.0002H8.30078C4.70078 17.0002 1.80078 19.9002 1.80078 23.5002V30.7002C1.80078 34.3002 4.70078 37.2002 8.30078 37.2002H9.30078V39.0002C9.30078 40.2002 10.3008 41.2002 11.5008 41.3002C11.7008 41.3002 13.3008 41.3002 15.4008 41.3002L18.7008 57.1002C19.3008 60.1002 22.0008 62.2002 25.0008 62.2002H25.9008C27.9008 62.2002 29.7008 61.3002 30.9008 59.8002C32.1008 58.3002 32.6008 56.3002 32.2008 54.4002L29.5008 41.3002C31.3008 41.3002 32.8008 41.3002 33.4008 41.3002H33.5008C40.0008 42.7002 49.0008 46.0002 55.2008 51.4002C56.0008 52.1002 57.0008 52.4002 58.0008 52.4002C58.6008 52.4002 59.2008 52.3002 59.8008 52.0002C61.3008 51.3002 62.2008 49.8002 62.2008 48.2002V5.90019ZM27.4008 57.0002C27.2008 57.3002 26.7008 57.7002 25.9008 57.7002H25.0008C24.1008 57.7002 23.3008 57.0002 23.1008 56.1002L20.0008 41.4002H24.9008L27.8008 55.4002C27.9008 56.2002 27.6008 56.8002 27.4008 57.0002ZM11.5008 32.6002H8.20078C7.10078 32.6002 6.20078 31.7002 6.20078 30.6002V23.4002C6.20078 22.3002 7.10078 21.4002 8.20078 21.4002H11.4008C12.6008 21.4002 13.7008 20.4002 13.7008 19.1002V17.2002C19.3008 17.1002 27.1008 17.1002 31.1008 17.0002V36.7002C27.1008 36.7002 19.3008 36.6002 13.7008 36.5002V34.6002C13.7008 33.6002 12.7008 32.6002 11.5008 32.6002ZM35.7008 37.3002V16.9002C44.0008 15.0002 52.1008 11.3002 57.7008 6.60019V47.6002C52.1008 42.9002 44.0008 39.1002 35.7008 37.3002Z"/></svg>