<?xml version="1.0" encoding="utf-8"?>
<!-- Generator: Adobe Illustrator 22.0.0, SVG Export Plug-In . SVG Version: 6.00 Build 0)  -->
<svg fill="#000000" width="52" height="52" version="1.1" id="lni_lni-volume-medium" xmlns="http://www.w3.org/2000/svg" xmlns:xlink="http://www.w3.org/1999/xlink"
	 x="0px" y="0px" viewBox="0 0 64 64" style="enable-background:new 0 0 64 64;" xml:space="preserve">
<g>
	<path d="M56,17c-0.4-0.4-1-0.4-1.4,0c-0.4,0.4-0.4,1,0,1.4c7.2,7.5,7.2,19.7,0,27.2c-0.4,0.4-0.4,1,0,1.4c0.2,0.2,0.4,0.3,0.7,0.3
		c0.3,0,0.5-0.1,0.7-0.3C64,38.7,64,25.3,56,17z"/>
	<path d="M46.5,24.6c-0.4,0.4-0.4,1,0,1.4c3.2,3.3,3.1,8.7,0,12c-0.4,0.4-0.4,1,0,1.4c0.2,0.2,0.4,0.3,0.7,0.3
		c0.3,0,0.5-0.1,0.7-0.3c3.9-4.1,3.9-10.7,0-14.8C47.5,24.2,46.9,24.2,46.5,24.6z"/>
	<path d="M34.5,12.9c-1.2-0.7-2.6-0.6-3.7,0.1l-11,6.9c-0.3,0.2-0.6,0.3-0.9,0.3H5.7c-2,0-3.7,1.7-3.7,3.7v16.2c0,2,1.7,3.7,3.7,3.7
		h13.1c0.3,0,0.6,0.1,0.9,0.3l11,6.9c0.6,0.4,1.3,0.6,2,0.6c0.6,0,1.2-0.2,1.8-0.5c1.2-0.7,1.9-1.9,1.9-3.2V16.1
		C36.4,14.8,35.7,13.5,34.5,12.9z M34.4,47.9c0,0.6-0.3,1.2-0.9,1.5c-0.5,0.3-1.2,0.3-1.7,0l-11-6.9c-0.6-0.4-1.3-0.6-2-0.6H5.7
		c-0.9,0-1.7-0.8-1.7-1.7V23.9c0-0.9,0.8-1.7,1.7-1.7h13.1c0.7,0,1.4-0.2,2-0.6l11-6.9c0.5-0.3,1.2-0.3,1.7,0
		c0.6,0.3,0.9,0.9,0.9,1.5V47.9z"/>
</g>
</svg>
